<svg width="185" height="175" viewBox="0 0 185 175" fill="none" xmlns="http://www.w3.org/2000/svg">
<path d="M182.945 -45.4552H3.86426V207.82H182.945V-45.4552Z" fill="#F2EFE4"/>
<path d="M3.86438 -8.77919V207.82H182.945V4.42727L3.86438 -8.77919Z" fill="#F2EBD6"/>
<path d="M3.86438 79.1361V207.82H182.945V39.8122L3.86438 79.1361Z" fill="#F2E8C8"/>
<path d="M18.5147 75.1753L24.1934 75.1972C25.4845 73.0198 27.8698 71.5536 30.5942 71.5646C34.6426 71.5865 37.9469 74.8252 38.0892 78.8407L28.7451 78.797L23.1649 78.7751L14.8055 78.7423C14.8712 76.7618 16.5015 75.1753 18.5147 75.1753Z" fill="#F7F9ED"/>
<path d="M75.2905 22.589C74.634 17.2715 70.1042 13.1465 64.6115 13.1465C61.9418 13.1465 59.5018 14.1312 57.6199 15.7396C54.6766 10.1266 48.801 6.29707 42.0172 6.29707C34.7739 6.29707 28.5481 10.6737 25.8456 16.9323C25.4517 16.8666 25.0468 16.8229 24.642 16.8229C21.1735 16.8229 18.2959 19.3066 17.6722 22.589H75.2905Z" fill="#F7F9ED"/>
<path d="M101.506 52.6578C98.3986 56.2685 91.8228 55.6886 91.8228 55.6886C91.8228 55.6886 90.269 49.2659 93.3765 45.6552C96.4839 42.0445 103.06 42.6244 103.06 42.6244C103.06 42.6244 104.602 49.047 101.506 52.6578Z" fill="#CC691E"/>
<path d="M77.1939 149.709C72.8829 151.723 67.1167 148.506 67.1167 148.506C67.1167 148.506 68.3312 142.006 72.6422 139.993C76.9532 137.98 82.7193 141.197 82.7193 141.197C82.7193 141.197 81.5048 147.696 77.1939 149.709Z" fill="#FE9A4F"/>
<path d="M21.9087 156.271L208.133 154.381L164.956 71.7188C164.198 70.2732 162.753 69.2369 161.124 69.2107C160.201 69.1933 159.261 69.4633 158.442 70.0468L149.211 76.5956C148 77.4491 146.424 77.5623 145.109 76.883L138.308 73.3734C136.775 72.581 134.929 72.6855 133.501 73.6521L21.9174 149.539V156.271H21.9087Z" fill="#F2D88A"/>
<path d="M167.159 83.0923C159.931 83.0923 153.425 86.21 148.923 91.1739C144.821 95.1972 142.278 100.797 142.278 106.997C142.278 108.33 142.4 109.636 142.627 110.899C137.872 112.954 134.406 117.413 133.727 122.743C132.76 122.542 131.758 122.438 130.731 122.438C126.969 122.438 123.538 123.84 120.908 126.139C119.105 122.081 115.047 119.25 110.327 119.25C107.427 119.25 104.788 120.322 102.75 122.081C101.191 117.526 96.8805 114.243 91.7947 114.243C88.2416 114.243 85.063 115.845 82.938 118.362C80.5867 115.035 76.7288 112.858 72.3484 112.858C71.8781 112.858 71.4079 112.884 70.9463 112.937C67.1755 105.247 59.2768 99.9521 50.1415 99.9521C45.5085 99.9521 41.189 101.319 37.5663 103.671C36.8783 102.835 36.1468 102.051 35.363 101.311C32.9768 98.9245 30.0594 97.0696 26.7937 95.9549C24.0157 94.9186 21.0112 94.3438 17.8761 94.3438C3.82045 94.3438 -7.5791 105.743 -7.5791 119.799C-7.5791 133.855 3.82045 145.254 17.8761 145.254C23.9373 145.254 29.5021 143.129 33.8738 139.594C38.0539 143.722 43.7929 146.282 50.1415 146.282C57.2651 146.282 63.6398 143.06 67.8896 138C69.283 138.514 70.7808 138.801 72.3484 138.801C76.7288 138.801 80.5954 136.624 82.938 133.297C85.063 135.814 88.2416 137.417 91.7947 137.417C94.6947 137.417 97.3334 136.345 99.3712 134.586C100.93 139.141 105.241 142.424 110.327 142.424C112.46 142.424 114.463 141.832 116.179 140.822C117.72 147.44 123.651 152.378 130.74 152.378C138.36 152.378 144.638 146.674 145.57 139.306C146.537 139.507 147.538 139.611 148.566 139.611C154.261 139.611 159.208 136.424 161.733 131.73C163.484 132.122 165.295 132.339 167.168 132.339C180.762 132.339 191.787 121.314 191.787 107.72C191.778 94.1174 180.753 83.0923 167.159 83.0923Z" fill="#FE9A4F"/>
<path d="M167.159 83.0923C159.931 83.0923 153.425 86.21 148.923 91.1739C144.821 95.1972 142.278 100.797 142.278 106.997C142.278 108.33 142.4 109.636 142.627 110.899C137.872 112.954 134.406 117.413 133.727 122.743C132.76 122.542 131.758 122.438 130.731 122.438C126.969 122.438 123.538 123.84 120.908 126.139C119.105 122.081 115.047 119.25 110.327 119.25C107.427 119.25 104.788 120.322 102.75 122.081C101.191 117.526 96.8805 114.243 91.7947 114.243C88.2416 114.243 85.063 115.845 82.938 118.362C80.5867 115.035 76.7288 112.858 72.3484 112.858C71.8781 112.858 71.4079 112.884 70.9463 112.937C67.1755 105.247 59.2768 99.9521 50.1415 99.9521C45.5085 99.9521 41.189 101.319 37.5663 103.671C36.8783 102.835 36.1468 102.051 35.363 101.311C32.9768 98.9245 30.0594 97.0696 26.7937 95.9549C24.0157 94.9186 21.0112 94.3438 17.8761 94.3438C3.82045 94.3438 -7.5791 105.743 -7.5791 119.799C-7.5791 133.855 3.82045 145.254 17.8761 145.254C23.9373 145.254 29.5021 143.129 33.8738 139.594C38.0539 143.722 43.7929 146.282 50.1415 146.282C57.2651 146.282 63.6398 143.06 67.8896 138C69.283 138.514 70.7808 138.801 72.3484 138.801C76.7288 138.801 80.5954 136.624 82.938 133.297C85.063 135.814 88.2416 137.417 91.7947 137.417C94.6947 137.417 97.3334 136.345 99.3712 134.586C100.93 139.141 105.241 142.424 110.327 142.424C112.46 142.424 114.463 141.832 116.179 140.822C117.72 147.44 123.651 152.378 130.74 152.378C138.36 152.378 144.638 146.674 145.57 139.306C146.537 139.507 147.538 139.611 148.566 139.611C154.261 139.611 159.208 136.424 161.733 131.73C163.484 132.122 165.295 132.339 167.168 132.339C180.762 132.339 191.787 121.314 191.787 107.72C191.778 94.1174 180.753 83.0923 167.159 83.0923Z" fill="url(#paint0_linear_1_1337)"/>
<path d="M167.42 145.08L165.661 31.7554H155.629L155.219 57.9247L151.362 55.8608L135.599 38.3478L128.78 44.4873L145.623 63.2021L155.063 68.2357L153.87 145.08H167.42Z" fill="#9E4927"/>
<path opacity="0.61" d="M167.42 145.08L165.661 31.7554H155.629L155.219 57.9247L151.362 55.8608L135.599 38.3478L128.78 44.4873L145.623 63.2021L155.063 68.2357L153.87 145.08H167.42Z" fill="url(#paint1_linear_1_1337)"/>
<path d="M184.96 5.52492C182.382 4.86306 179.752 4.8979 177.374 5.49008C178.811 4.77598 179.943 3.65257 180.457 2.22436C181.572 -0.867191 179.395 -4.16775 175.589 -5.14311C174.927 -5.30857 174.265 -5.39566 173.603 -5.41308C174.814 -6.62357 175.763 -8.05178 176.347 -9.65417C178.715 -16.2117 174.1 -23.2047 166.036 -25.2687C160.863 -26.6011 155.533 -25.5648 151.745 -22.9261C150.883 -26.7143 147.539 -30.0149 142.732 -31.2515C136.235 -32.9235 129.442 -30.1977 127.082 -25.138C123.581 -29.2833 117.851 -31.9917 111.354 -31.9917C100.686 -31.9917 92.0301 -24.6939 92.0301 -15.6979C92.0301 -14.5745 92.1607 -13.4772 92.422 -12.4235C92.1433 -12.4409 91.8733 -12.4583 91.5947 -12.4583C83.6002 -12.4583 77.121 -6.98933 77.121 -0.24888C77.121 4.50601 80.3519 8.60776 85.0458 10.6282C80.2822 13.1885 77.121 17.6734 77.121 22.7941C77.121 30.7624 84.7845 37.2242 94.2334 37.2242C96.5411 37.2242 98.7444 36.8323 100.756 36.1356C100.556 36.7365 100.434 37.3635 100.434 38.0167C100.434 41.7788 104.048 44.8268 108.507 44.8268C110.562 44.8268 112.434 44.1737 113.863 43.1025C112.278 45.0619 111.346 47.4307 111.346 49.9823C111.346 56.7227 117.825 62.1917 125.819 62.1917C133.814 62.1917 140.293 56.7227 140.293 49.9823C140.293 48.9721 140.128 47.9967 139.858 47.0562C143.559 46.5772 146.798 44.9313 149.019 42.5539C151.388 43.9734 154.279 44.8268 157.405 44.8268C165.4 44.8268 171.879 39.3578 171.879 32.6174C171.879 31.1369 171.548 29.7261 170.974 28.4111C172.602 27.427 173.943 26.1207 174.849 24.5532C175.728 24.9886 176.678 25.3544 177.697 25.6156C184.515 27.3661 191.665 24.2919 193.668 18.7446C195.688 13.1885 191.787 7.27534 184.96 5.52492Z" fill="#CC691E"/>
<path d="M184.96 5.52492C182.382 4.86306 179.752 4.8979 177.374 5.49008C178.811 4.77598 179.943 3.65257 180.457 2.22436C181.572 -0.867191 179.395 -4.16775 175.589 -5.14311C174.927 -5.30857 174.265 -5.39566 173.603 -5.41308C174.814 -6.62357 175.763 -8.05178 176.347 -9.65417C178.715 -16.2117 174.1 -23.2047 166.036 -25.2687C160.863 -26.6011 155.533 -25.5648 151.745 -22.9261C150.883 -26.7143 147.539 -30.0149 142.732 -31.2515C136.235 -32.9235 129.442 -30.1977 127.082 -25.138C123.581 -29.2833 117.851 -31.9917 111.354 -31.9917C100.686 -31.9917 92.0301 -24.6939 92.0301 -15.6979C92.0301 -14.5745 92.1607 -13.4772 92.422 -12.4235C92.1433 -12.4409 91.8733 -12.4583 91.5947 -12.4583C83.6002 -12.4583 77.121 -6.98933 77.121 -0.24888C77.121 4.50601 80.3519 8.60776 85.0458 10.6282C80.2822 13.1885 77.121 17.6734 77.121 22.7941C77.121 30.7624 84.7845 37.2242 94.2334 37.2242C96.5411 37.2242 98.7444 36.8323 100.756 36.1356C100.556 36.7365 100.434 37.3635 100.434 38.0167C100.434 41.7788 104.048 44.8268 108.507 44.8268C110.562 44.8268 112.434 44.1737 113.863 43.1025C112.278 45.0619 111.346 47.4307 111.346 49.9823C111.346 56.7227 117.825 62.1917 125.819 62.1917C133.814 62.1917 140.293 56.7227 140.293 49.9823C140.293 48.9721 140.128 47.9967 139.858 47.0562C143.559 46.5772 146.798 44.9313 149.019 42.5539C151.388 43.9734 154.279 44.8268 157.405 44.8268C165.4 44.8268 171.879 39.3578 171.879 32.6174C171.879 31.1369 171.548 29.7261 170.974 28.4111C172.602 27.427 173.943 26.1207 174.849 24.5532C175.728 24.9886 176.678 25.3544 177.697 25.6156C184.515 27.3661 191.665 24.2919 193.668 18.7446C195.688 13.1885 191.787 7.27534 184.96 5.52492Z" fill="url(#paint2_linear_1_1337)"/>
<path d="M43.6101 94.3352L35.5024 118.859L30.1466 102.643L22.7878 136.729L55.8283 131.286L43.6101 94.3352Z" fill="#CC691E"/>
<path d="M138.386 122.856L133.918 136.363L125.775 111.726L114.254 146.587H148.27L138.386 122.856Z" fill="#CC691E"/>
<path d="M62.4905 118.223C61.7067 118.223 60.9229 118.232 60.1391 118.249C44.0805 118.632 28.4137 123.291 14.4713 131.251L-75.1837 182.449H164.442V179.488L131.942 146.987C113.523 128.569 88.5379 118.223 62.4905 118.223Z" fill="#FEC956"/>
<path d="M62.4905 118.223C61.7067 118.223 60.9229 118.232 60.1391 118.249C44.0805 118.632 28.4137 123.291 14.4713 131.251L-75.1837 182.449H164.442V179.488L131.942 146.987C113.523 128.569 88.5379 118.223 62.4905 118.223Z" fill="url(#paint3_linear_1_1337)"/>
<path d="M155.402 121.82C123.59 152.178 69.2743 159.493 34.7447 160.869C25.5571 161.235 16.4305 162.471 7.5042 164.64L-65.8918 182.449H259.749L194.068 121.341C190.036 117.587 184.985 115.105 179.542 114.208C170.738 112.763 161.855 115.663 155.402 121.82Z" fill="#CE4C52"/>
<path d="M155.402 121.82C123.59 152.178 69.2743 159.493 34.7447 160.869C25.5571 161.235 16.4305 162.471 7.5042 164.64L-65.8918 182.449H259.749L194.068 121.341C190.036 117.587 184.985 115.105 179.542 114.208C170.738 112.763 161.855 115.663 155.402 121.82Z" fill="url(#paint4_linear_1_1337)"/>
<path d="M40.9542 196.321C45.7614 193.5 49.4103 189.781 44.3593 186.333C43.6016 185.819 43.6277 184.704 44.4202 184.234C47.834 182.222 54.4003 177.459 52.136 171.667C52.136 171.667 50.9256 168.802 45.4566 168.585C44.5857 168.55 43.9674 167.722 44.1677 166.878C45.143 162.715 46.9544 152.23 41.4854 149.312C38.9512 147.963 35.8074 148.877 34.1789 151.237C33.0207 152.927 31.8015 155.487 31.4444 159.057C31.4444 159.057 31.7231 161.496 28.4487 158.744C25.1742 155.992 21.6298 156.645 20.4368 162.044C19.2437 167.444 18.9737 172.991 16.9272 173.801C14.8807 174.611 11.3537 172.547 9.16784 176.414C7.46096 179.435 9.66423 188.266 19.9055 195.442C26.1409 199.822 34.3618 200.188 40.9542 196.321Z" fill="#EB7D41"/>
<defs>
<linearGradient id="paint0_linear_1_1337" x1="90.6107" y1="71.5035" x2="92.546" y2="126.464" gradientUnits="userSpaceOnUse">
<stop offset="0.4372" stop-color="#FFF459" stop-opacity="0.53"/>
<stop offset="0.9596" stop-color="#FFF459" stop-opacity="0"/>
</linearGradient>
<linearGradient id="paint1_linear_1_1337" x1="143.8" y1="13.6165" x2="156.135" y2="101.955" gradientUnits="userSpaceOnUse">
<stop stop-color="#040006"/>
<stop offset="1" stop-color="#040006" stop-opacity="0"/>
</linearGradient>
<linearGradient id="paint2_linear_1_1337" x1="55.2457" y1="54.5011" x2="130.453" y2="8.34223" gradientUnits="userSpaceOnUse">
<stop offset="0.4372" stop-color="#FFF459" stop-opacity="0.53"/>
<stop offset="0.9596" stop-color="#FFF459" stop-opacity="0"/>
</linearGradient>
<linearGradient id="paint3_linear_1_1337" x1="41.6395" y1="103.981" x2="43.1878" y2="143.848" gradientUnits="userSpaceOnUse">
<stop offset="0.4372" stop-color="#FFE9B1" stop-opacity="0.53"/>
<stop offset="0.9596" stop-color="#FFE9B1" stop-opacity="0"/>
</linearGradient>
<linearGradient id="paint4_linear_1_1337" x1="84.177" y1="121.446" x2="95.0142" y2="173.31" gradientUnits="userSpaceOnUse">
<stop offset="0.4372" stop-color="#FFF459" stop-opacity="0.53"/>
<stop offset="0.9596" stop-color="#FFF459" stop-opacity="0"/>
</linearGradient>
</defs>
</svg>
