<svg width="185" height="218" viewBox="0 0 185 218" fill="none" xmlns="http://www.w3.org/2000/svg">
<path d="M186.988 -26.1045H1.47716V236.266H186.988V-26.1045Z" fill="#4FA4C0"/>
<path d="M186.988 -26.1045H1.47716V236.266H186.988V-26.1045Z" fill="url(#paint0_linear_2_5)"/>
<path d="M186.988 -26.1045H1.47716V236.266H186.988V-26.1045Z" fill="#4FA4C0"/>
<path d="M186.988 -26.1045H1.47716V236.266H186.988V-26.1045Z" fill="url(#paint1_linear_2_5)"/>
<path opacity="0.61" d="M61.9467 29.0718C70.1909 29.0718 76.8742 22.3885 76.8742 14.1443C76.8742 5.90006 70.1909 -0.783203 61.9467 -0.783203C53.7025 -0.783203 47.0192 5.90006 47.0192 14.1443C47.0192 22.3885 53.7025 29.0718 61.9467 29.0718Z" fill="white"/>
<path opacity="0.22" d="M175.733 -18.6918C175.563 -18.6918 175.405 -18.6805 175.246 -18.6805C175.031 -18.6805 174.804 -18.6918 174.588 -18.6918C160.092 -18.6238 147.51 -9.48823 142.24 3.24037C140.29 7.71748 139.191 12.648 139.191 17.8391C139.191 30.205 145.346 41.1428 154.753 47.7508C147.771 50.1764 142.75 56.7843 142.75 64.5938C142.75 70.091 145.232 74.9988 149.143 78.2745C140.302 78.9772 133.331 86.3559 133.331 95.3782C133.331 96.9763 133.569 98.5178 133.977 99.9913C132.617 99.7079 131.2 99.5606 129.761 99.5606C119.333 99.5606 110.73 107.257 109.257 117.276C107.659 116.846 105.981 116.596 104.247 116.596C99.509 116.596 95.1793 118.319 91.8356 121.153C87.0525 113.638 78.665 108.628 69.0874 108.628C66.1404 108.628 63.3068 109.116 60.6545 109.988C61.5953 107.2 61.8787 104.128 61.2099 100.887C60.0198 95.1175 55.826 90.3797 50.3628 88.1808C46.9852 86.8207 43.7549 86.7073 40.7852 87.2854C41.6353 85.4718 42.134 83.4543 42.134 81.3234C42.134 74.1034 36.6822 68.1641 29.6661 67.3821C30.7429 64.5031 31.3549 61.3975 31.3549 58.1445C31.3549 43.9764 20.2018 32.4493 6.20378 31.7692C9.28675 28.5162 11.191 24.1298 11.191 19.3013C11.191 9.2703 3.06414 1.1435 -6.96685 1.1435C-16.9978 1.1435 -25.1246 9.2703 -25.1246 19.3013V236.254H212.276V17.8505C212.264 -2.32485 195.909 -18.6918 175.733 -18.6918Z" fill="url(#paint2_linear_2_5)"/>
<path opacity="0.74" d="M213.624 65.4779C212.06 51.6612 200.907 40.7688 186.988 39.59V39.4767C186.795 39.4994 186.603 39.522 186.399 39.5447C185.764 39.4994 185.129 39.4767 184.483 39.4767C168.286 39.4767 155.15 52.6133 155.15 68.8103C155.15 75.1916 157.19 81.0968 160.658 85.914C160.919 86.4693 161.191 87.0134 161.486 87.5348C152.237 90.6744 145.583 99.402 145.583 109.705C145.583 109.75 145.595 109.796 145.595 109.852C141.265 106.497 135.824 104.491 129.919 104.491C125.997 104.491 122.291 105.375 118.97 106.939C113.938 96.1376 103 88.6456 90.3052 88.6456C83.8332 88.6456 77.826 90.5951 72.8161 93.9274C69.8012 89.3256 64.61 86.2767 58.6934 86.2767C55.6898 86.2767 52.8675 87.0701 50.4192 88.4529C48.413 78.9999 40.0255 71.9046 29.9719 71.9046C28.5664 71.9046 27.1949 72.0519 25.8688 72.3126C26.4582 70.2837 26.7982 68.1529 26.7982 65.9313C26.7982 63.3697 26.3562 60.9101 25.5741 58.6206C22.9332 49.7117 14.7044 43.2171 4.93407 43.2171C4.78672 43.2171 4.6507 43.2397 4.50335 43.2397C4.356 43.2397 4.22 43.2171 4.07265 43.2171C3.18857 43.2171 2.32714 43.2737 1.46572 43.3757V43.5231C-8.78063 45.1779 -16.6127 54.0415 -16.6127 64.7525V236.549H213.805V65.2966L213.624 65.4779Z" fill="url(#paint3_linear_2_5)"/>
<path d="M154.186 115.089L123.413 129.45L44.7976 94.0068C32.137 88.2942 17.3455 90.1418 6.47578 98.7899L1.47728 102.768L-145.599 236.266H334.994L191.159 118.761C188.405 116.506 185.277 114.772 181.911 113.615C172.82 110.498 162.891 111.031 154.186 115.089Z" fill="#A5C0EA"/>
<path d="M181.899 113.615C172.82 110.498 162.891 111.031 154.186 115.089L123.413 129.45L44.7973 94.0069C38.518 91.1732 31.7173 90.2098 25.132 91.0032L50.3738 125.449L42.315 133.813L110.696 197.626L175.982 154.374L160.533 143.051L184.801 114.613L181.899 113.615Z" fill="#92B3EA"/>
<path d="M154.186 115.089L123.413 129.45L44.7976 94.0068C32.137 88.2942 17.3455 90.1418 6.47578 98.7899L1.47728 102.768L-145.599 236.266H334.994L191.159 118.761C188.405 116.506 185.277 114.772 181.911 113.615C172.82 110.498 162.891 111.031 154.186 115.089Z" fill="url(#paint4_linear_2_5)"/>
<path d="M129.33 172.566L63.046 147.777C47.0304 141.782 29.4393 141.476 13.2084 146.893C5.44426 149.489 -1.85514 153.343 -8.37245 158.307L-110.836 236.266H284.612L216.696 196.164C197.189 184.648 175.132 178.142 152.498 177.236C144.586 176.918 136.765 175.343 129.33 172.566Z" fill="white"/>
<path d="M152.509 177.236C144.586 176.918 136.765 175.343 129.33 172.566L63.0458 147.778C56.6418 145.386 49.9885 143.913 43.2785 143.334L35.7638 161.107C33.1908 167.182 34.313 174.187 38.6314 179.163L88.197 236.254H284.623L216.707 196.153C197.2 184.649 175.144 178.143 152.509 177.236Z" fill="#CEE0FF"/>
<path d="M129.33 172.566L63.046 147.777C47.0304 141.782 29.4393 141.476 13.2084 146.893C5.44426 149.489 -1.85514 153.343 -8.37245 158.307L-110.836 236.266H284.612L216.696 196.164C197.189 184.648 175.132 178.142 152.498 177.236C144.586 176.918 136.765 175.343 129.33 172.566Z" fill="url(#paint5_linear_2_5)"/>
<path d="M-11.1039 236.537L11.9617 178.607L40.3772 236.537H-11.1039Z" fill="#2F497C"/>
<path d="M22.5026 236.537L46.7357 168.236L73.9951 236.537H22.5026Z" fill="#2F497C"/>
<path d="M29.9266 171.693L17.4134 196.606H23.67L3.99336 236.537H53.6383L40.2183 204.121L48.7191 206.705L29.9266 171.693Z" fill="#627BB3"/>
<path d="M-1.19777 171.693L-13.7223 196.606H-7.4544L-27.131 236.537H22.5026L9.09391 204.121L17.5834 206.705L-1.19777 171.693Z" fill="#496AAA"/>
<path d="M83.856 182.925L73.4963 203.531H78.6761L62.4112 236.537H103.453L92.3568 209.731L99.3842 211.874L83.856 182.925Z" fill="#2F79AA"/>
<path d="M61.8219 182.925L51.4735 203.531H56.642L40.3771 236.537H81.4191L70.3227 209.731L77.3501 211.874L61.8219 182.925Z" fill="#496AAA"/>
<path d="M151.546 236.538L168.151 194.861L188.587 236.538H151.546Z" fill="#2F497C"/>
<path d="M175.733 236.538L193.166 187.403L212.774 236.538H175.733Z" fill="#2F497C"/>
<path d="M181.072 189.885L172.061 207.816H176.572L162.415 236.537H198.13L188.473 213.211L194.582 215.081L181.072 189.885Z" fill="#627BB3"/>
<path d="M158.675 189.885L149.664 207.816H154.175L140.019 236.537H175.733L166.076 213.211L172.197 215.081L158.675 189.885Z" fill="#496AAA"/>
<defs>
<linearGradient id="paint0_linear_2_5" x1="94.875" y1="-87.1862" x2="94.2032" y2="114.315" gradientUnits="userSpaceOnUse">
<stop offset="0.4372" stop-color="#9477FF" stop-opacity="0.53"/>
<stop offset="0.9596" stop-color="#9477FF" stop-opacity="0"/>
</linearGradient>
<linearGradient id="paint1_linear_2_5" x1="94.2327" y1="-1.38576" x2="94.2327" y2="110.619" gradientUnits="userSpaceOnUse">
<stop stop-color="#7F88ED"/>
<stop offset="0.9596" stop-color="#96B0ED"/>
</linearGradient>
<linearGradient id="paint2_linear_2_5" x1="90.8273" y1="-71.5405" x2="94.4619" y2="191.609" gradientUnits="userSpaceOnUse">
<stop stop-color="white"/>
<stop offset="1" stop-color="white" stop-opacity="0"/>
</linearGradient>
<linearGradient id="paint3_linear_2_5" x1="96.8099" y1="44.538" x2="99.5072" y2="203.68" gradientUnits="userSpaceOnUse">
<stop stop-color="white"/>
<stop offset="1" stop-color="white" stop-opacity="0"/>
</linearGradient>
<linearGradient id="paint4_linear_2_5" x1="94.6975" y1="65.2121" x2="95.6841" y2="164.083" gradientUnits="userSpaceOnUse">
<stop stop-color="#5B5FB3" stop-opacity="0.53"/>
<stop offset="0.9596" stop-color="#7E5AFF" stop-opacity="0"/>
</linearGradient>
<linearGradient id="paint5_linear_2_5" x1="81.9412" y1="236.266" x2="86.888" y2="137.864" gradientUnits="userSpaceOnUse">
<stop offset="0.4372" stop-color="#4198F4" stop-opacity="0.53"/>
<stop offset="0.9596" stop-color="#4AA2FF" stop-opacity="0"/>
</linearGradient>
</defs>
</svg>
