<svg width="173" height="171" viewBox="0 0 173 171" fill="none" xmlns="http://www.w3.org/2000/svg">
<path d="M155.624 -5.20671C155.624 -5.20671 138.418 -16.6029 117.46 -10.5912C96.499 -4.58137 82.1916 14.2057 70.1968 29.1169C58.2002 44.0307 58.724 62.3918 70.9449 73.7701C83.1658 85.1483 95.4759 75.9842 115.358 80.3754C135.241 84.7667 139.881 88.9242 158.912 81.8759C177.944 74.8277 187.146 49.2136 178.837 26.4708C170.525 3.72621 155.624 -5.20671 155.624 -5.20671Z" fill="#F1B869"/>
<path d="M102.409 64.5631C101.578 64.8376 100.679 64.384 100.405 63.5545L94.8592 46.7747C94.6212 46.0547 93.8446 45.6628 93.1262 45.9003C92.4078 46.1377 92.0176 46.9152 92.2556 47.6352L96.3954 60.161C96.6391 60.8983 96.2393 61.695 95.5037 61.9381C94.768 62.1812 93.9723 61.7797 93.7286 61.0424L91.4431 54.1272C91.267 53.5943 90.6931 53.3048 90.1615 53.4805C89.6298 53.6562 89.3416 54.2307 89.5177 54.7635L90.3677 57.3355L88.2469 58.0364L88.1517 57.7484L89.9851 57.1425L89.2303 54.8585C89.0018 54.1673 89.3766 53.4204 90.0663 53.1925C90.756 52.9645 91.502 53.341 91.7304 54.0322L94.0159 60.9474C94.2073 61.5263 94.8309 61.841 95.4085 61.6501C95.9861 61.4592 96.2994 60.8349 96.108 60.256L91.9682 47.7302C91.6779 46.8518 92.1545 45.902 93.031 45.6123C93.9075 45.3226 94.8562 45.8013 95.1466 46.6798L100.692 63.4595C100.914 64.1306 101.641 64.4974 102.313 64.2751C102.983 64.0538 103.348 63.3261 103.126 62.655L96.3603 42.1829C96.0081 41.1173 96.5866 39.9645 97.6499 39.6131C98.7131 39.2616 99.8647 39.8427 100.217 40.9083L106.952 61.2854C107.19 62.0054 107.966 62.3973 108.685 62.1598C109.403 61.9224 109.793 61.1449 109.555 60.4249L104.188 44.1866C103.851 43.167 104.405 42.064 105.422 41.7278C106.439 41.3916 107.541 41.9475 107.878 42.9671L111.837 54.9456C112.044 55.5706 112.721 55.9123 113.344 55.7062C113.968 55.5001 114.308 54.8222 114.102 54.1972L111.949 47.6852C111.701 46.9335 112.108 46.1215 112.858 45.8736C113.609 45.6257 114.422 46.034 114.671 46.7857L115.325 48.7644L117.446 48.0635L117.541 48.3515L115.133 49.1474L114.384 46.8807C114.187 46.2874 113.546 45.966 112.954 46.1616C112.362 46.3573 112.042 46.9998 112.237 47.5902L114.389 54.1022C114.648 54.8856 114.221 55.7359 113.44 55.9942C112.658 56.2525 111.809 55.824 111.55 55.0406L107.591 43.0621C107.306 42.2009 106.377 41.7318 105.517 42.0158C104.658 42.2998 104.191 43.2305 104.476 44.0916L109.843 60.3299C110.133 61.2084 109.656 62.1582 108.78 62.4479C107.903 62.7375 106.955 62.2588 106.664 61.3804L99.9295 41.0033C99.6296 40.0961 98.6503 39.6019 97.745 39.9011C96.8398 40.2003 96.3478 41.1807 96.6477 42.088L103.414 62.5601C103.691 63.3886 103.239 64.2886 102.409 64.5631Z" fill="#FEDEA5"/>
<path d="M130.14 55.3968C129.309 55.6713 128.41 55.2176 128.136 54.3881L122.59 37.6084C122.352 36.8884 121.576 36.4965 120.857 36.7339C120.139 36.9714 119.749 37.7489 119.987 38.4689L124.127 50.9947C124.37 51.732 123.971 52.5286 123.235 52.7718C122.499 53.0149 121.704 52.6134 121.46 51.8761L119.174 44.9608C118.998 44.428 118.424 44.1384 117.893 44.3142C117.361 44.4899 117.073 45.0644 117.249 45.5972L118.099 48.1692L115.978 48.8701L115.883 48.5821L117.716 47.9761L116.962 45.6922C116.733 45.0009 117.108 44.2541 117.798 44.0261C118.487 43.7982 119.233 44.1746 119.462 44.8658L121.747 51.7811C121.939 52.36 122.562 52.6746 123.14 52.4837C123.717 52.2928 124.031 51.6686 123.839 51.0896L119.699 38.5639C119.409 37.6854 119.886 36.7356 120.762 36.4459C121.639 36.1562 122.588 36.635 122.878 37.5134L128.424 54.2932C128.645 54.9642 129.372 55.331 130.045 55.1088C130.714 54.8875 131.079 54.1598 130.858 53.4887L124.092 33.0166C123.739 31.951 124.318 30.7981 125.381 30.4467C126.444 30.0953 127.596 30.6763 127.948 31.742L134.683 52.1191C134.921 52.8391 135.697 53.231 136.416 52.9935C137.134 52.7561 137.524 51.9786 137.286 51.2585L131.92 35.0203C131.583 34.0007 132.136 32.8977 133.153 32.5615C134.171 32.2252 135.273 32.7812 135.609 33.8007L139.568 45.7793C139.775 46.4043 140.452 46.746 141.076 46.5399C141.699 46.3337 142.04 45.6558 141.833 45.0309L139.681 38.5188C139.432 37.7671 139.84 36.9552 140.593 36.7063C141.343 36.4584 142.154 36.8677 142.402 37.6194L143.056 39.5981L145.177 38.8971L145.272 39.1851L142.864 39.9811L142.115 37.7144C141.919 37.1211 141.28 36.7987 140.688 36.9943C140.096 37.19 139.773 37.8334 139.968 38.4239L142.12 44.9359C142.379 45.7193 141.953 46.5695 141.171 46.8279C140.389 47.0862 139.54 46.6577 139.281 45.8743L135.322 33.8957C135.037 33.0346 134.108 32.5655 133.249 32.8495C132.389 33.1335 131.922 34.0641 132.207 34.9253L137.574 51.1636C137.864 52.042 137.388 52.9918 136.511 53.2815C135.635 53.5712 134.686 53.0925 134.395 52.214L127.661 31.837C127.361 30.9297 126.382 30.4356 125.476 30.7347C124.571 31.0339 124.079 32.0144 124.379 32.9216L131.145 53.3937C131.422 54.2223 130.97 55.1223 130.14 55.3968Z" fill="#FEDEA5"/>
<path d="M157.871 46.2317C157.041 46.5062 156.142 46.0525 155.868 45.2231L150.322 28.4433C150.084 27.7233 149.307 27.3314 148.589 27.5689C147.871 27.8063 147.48 28.5838 147.718 29.3038L151.858 41.8296C152.102 42.5669 151.702 43.3635 150.967 43.6067C150.231 43.8498 149.435 43.4483 149.191 42.711L146.906 35.7957C146.73 35.2629 146.156 34.9734 145.624 35.1491C145.093 35.3248 144.804 35.8993 144.98 36.4321L145.831 39.0041L143.71 39.705L143.615 39.417L145.448 38.811L144.693 36.5271C144.465 35.8358 144.839 35.089 145.529 34.8611C146.219 34.6331 146.965 35.0095 147.193 35.7008L149.479 42.616C149.67 43.1949 150.294 43.5096 150.871 43.3187C151.449 43.1278 151.762 42.5035 151.571 41.9246L147.431 29.3988C147.141 28.5204 147.617 27.5705 148.494 27.2808C149.37 26.9912 150.319 27.4699 150.609 28.3483L156.155 45.1281C156.377 45.7992 157.104 46.1659 157.776 45.9437C158.449 45.7214 158.811 44.9947 158.589 44.3236L151.823 23.8515C151.471 22.7859 152.049 21.6331 153.113 21.2816C154.176 20.9302 155.327 21.5113 155.68 22.5769L162.414 42.954C162.652 43.674 163.429 44.0659 164.147 43.8284C164.866 43.591 165.256 42.8135 165.018 42.0935L159.651 25.8552C159.314 24.8356 159.868 23.7326 160.885 23.3964C161.902 23.0601 163.004 23.6161 163.341 24.6357L167.3 36.6142C167.507 37.2392 168.184 37.5809 168.807 37.3748C169.431 37.1687 169.771 36.4908 169.565 35.8658L167.412 29.3538C167.164 28.602 167.571 27.7901 168.324 27.5413C169.074 27.2934 169.885 27.7026 170.134 28.4543L170.788 30.433L172.908 29.732L173.004 30.0201L170.595 30.816L169.846 28.5493C169.65 27.956 169.011 27.6336 168.419 27.8293C167.827 28.0249 167.505 28.6683 167.7 29.2588L169.852 35.7708C170.111 36.5542 169.684 37.4044 168.903 37.6628C168.121 37.9211 167.272 37.4926 167.013 36.7092L163.054 24.7306C162.769 23.8695 161.839 23.4004 160.98 23.6844C160.121 23.9684 159.654 24.899 159.939 25.7602L165.305 41.9985C165.596 42.8769 165.119 43.8268 164.243 44.1164C163.366 44.4061 162.417 43.9274 162.127 43.0489L155.392 22.6719C155.092 21.7646 154.113 21.2705 153.208 21.5697C152.303 21.8688 151.811 22.8493 152.111 23.7565L158.877 44.2286C159.154 45.0572 158.702 45.9572 157.871 46.2317Z" fill="#FEDEA5"/>
<path d="M115.05 -0.222702L114.168 -2.8926L112.304 -0.797365L115.05 -0.222702Z" fill="#263238"/>
<path d="M111.494 -2.07963L111.075 -1.94096L111.976 0.786537L112.396 0.64787L111.494 -2.07963Z" fill="#263238"/>
<path d="M119.563 -7.49694C117.603 -6.84918 116.543 -4.73218 117.192 -2.7708C117.841 -0.806539 119.956 0.258073 121.913 -0.388729C123.872 -1.03648 124.932 -3.15348 124.284 -5.11486C123.635 -7.07913 121.523 -8.14469 119.563 -7.49694ZM120.854 -1.90452L119.799 -1.55595L118.561 -5.30303L119.615 -5.6516L120.854 -1.90452ZM122.914 -2.58552L121.86 -2.23695L120.621 -5.98402L121.676 -6.33259L122.914 -2.58552Z" fill="#263238"/>
<path d="M159.368 12.7161C159.13 12.7949 158.873 12.6656 158.794 12.4265L157.504 8.5239C157.425 8.28484 157.554 8.02824 157.793 7.94941C158.031 7.87057 158.287 7.99991 158.366 8.23896L159.656 12.1416C159.734 12.3777 159.607 12.6372 159.368 12.7161Z" fill="#FFDB9D"/>
<path d="M157.786 12.6667C157.548 12.7455 157.291 12.6162 157.212 12.3772L156.263 9.50565C156.184 9.26659 156.313 9.00999 156.552 8.93116C156.79 8.85232 157.046 8.98166 157.125 9.22071L158.074 12.0922C158.153 12.3313 158.025 12.5879 157.786 12.6667Z" fill="#FFDB9D"/>
<path d="M156.376 13.1328C156.137 13.2117 155.881 13.0823 155.802 12.8433L154.853 9.97177C154.774 9.73272 154.902 9.47611 155.141 9.39728C155.379 9.31845 155.636 9.44778 155.715 9.68684L156.664 12.5584C156.743 12.7974 156.614 13.054 156.376 13.1328Z" fill="#FFDB9D"/>
<path d="M173.302 7.53894C173.063 7.61777 172.807 7.48844 172.728 7.24938L171.779 4.37787C171.7 4.13882 171.829 3.88221 172.067 3.80338C172.306 3.72455 172.562 3.85388 172.641 4.09293L173.59 6.96445C173.669 7.2035 173.54 7.46011 173.302 7.53894Z" fill="#FFDB9D"/>
<path d="M171.891 8.00505C171.652 8.08388 171.396 7.95455 171.317 7.71549L170.368 4.84398C170.289 4.60493 170.418 4.34832 170.656 4.26949C170.895 4.19066 171.151 4.31999 171.23 4.55905L172.179 7.43056C172.258 7.66961 172.129 7.92622 171.891 8.00505Z" fill="#FFDB9D"/>
<path d="M160.779 12.2494C160.541 12.3283 160.284 12.1989 160.205 11.9599L158.915 8.05727C158.836 7.81821 158.965 7.56161 159.204 7.48278C159.442 7.40394 159.699 7.53328 159.778 7.77233L161.067 11.6749C161.145 11.9111 161.015 12.1715 160.779 12.2494Z" fill="#FFDB9D"/>
<path d="M162.414 12.4695C162.175 12.5483 161.919 12.419 161.84 12.1799L160.096 6.90347C160.017 6.66442 160.146 6.40782 160.384 6.32898C160.623 6.25015 160.879 6.37949 160.958 6.61854L162.702 11.895C162.781 12.134 162.652 12.3906 162.414 12.4695Z" fill="#FFDB9D"/>
<path d="M164.183 13.0865C163.944 13.1654 163.688 13.036 163.609 12.797L161.15 5.35757C161.071 5.11852 161.2 4.86192 161.438 4.78308C161.677 4.70425 161.933 4.83359 162.012 5.07264L164.471 12.5121C164.549 12.7482 164.421 13.0077 164.183 13.0865Z" fill="#FFDB9D"/>
<path d="M170.653 8.9861C170.415 9.06493 170.159 8.9356 170.08 8.69655L168.79 4.79395C168.711 4.55489 168.839 4.29829 169.078 4.21946C169.316 4.14062 169.573 4.26996 169.652 4.50901L170.942 8.41161C171.02 8.64779 170.889 8.90822 170.653 8.9861Z" fill="#FFDB9D"/>
<path d="M169.242 9.45273C169.003 9.53156 168.747 9.40223 168.668 9.16318L167.378 5.26057C167.299 5.02152 167.428 4.76492 167.666 4.68609C167.905 4.60725 168.161 4.73659 168.24 4.97564L169.53 8.87824C169.608 9.11441 169.48 9.3739 169.242 9.45273Z" fill="#FFDB9D"/>
<path d="M168.057 10.6045C167.819 10.6833 167.563 10.554 167.484 10.3149L165.74 5.0385C165.661 4.79945 165.79 4.54284 166.028 4.46401C166.267 4.38518 166.523 4.51451 166.602 4.75356L168.346 10.03C168.425 10.2691 168.296 10.5257 168.057 10.6045Z" fill="#FFDB9D"/>
<path d="M167.004 12.1538C166.766 12.2326 166.51 12.1033 166.431 11.8643L163.972 4.42484C163.893 4.18578 164.022 3.92918 164.26 3.85035C164.499 3.77151 164.755 3.90085 164.834 4.1399L167.293 11.5793C167.371 11.8155 167.243 12.075 167.004 12.1538Z" fill="#FFDB9D"/>
<path d="M166.047 13.9936C165.809 14.0724 165.553 13.9431 165.474 13.704L162.106 3.51404C162.027 3.27499 162.156 3.01838 162.394 2.93955C162.633 2.86072 162.889 2.99005 162.968 3.2291L166.336 13.4191C166.415 13.6581 166.286 13.9147 166.047 13.9936Z" fill="#FFDB9D"/>
<path d="M79.931 28.0737C79.0539 26.6448 77.2831 25.9745 75.6681 26.5082C74.0416 27.0458 73.0113 28.6642 73.1833 30.3517C71.5917 31.1589 70.7955 33.0418 71.3657 34.767C71.9644 36.5786 73.813 37.6193 75.6691 37.188L75.501 36.4672C74.0213 36.8125 72.5447 35.9811 72.0669 34.5352C71.5871 33.0836 72.3177 31.494 73.727 30.9164L74.0019 30.8032L73.9489 30.5076C73.6883 29.0826 74.5267 27.665 75.9004 27.211C77.2769 26.756 78.7959 27.3977 79.4348 28.7041L79.5932 29.0287L79.9199 28.8792C80.0195 28.8335 80.1201 28.7907 80.2236 28.7565C81.7524 28.2512 83.406 29.088 83.9115 30.6173C84.4179 32.1496 83.5848 33.8051 82.0588 34.3094L82.2911 35.0122C84.205 34.3796 85.2467 32.3038 84.6127 30.3856C83.974 28.4434 81.8536 27.3807 79.931 28.0737Z" fill="#4A5161"/>
<path d="M79.7144 31.2666C79.6782 31.1572 79.5913 31.0677 79.4803 31.0309C79.3693 30.9941 79.2477 31.0119 79.1519 31.0788L75.8323 33.3899C75.6972 33.4825 75.6423 33.654 75.6937 33.8095L77.0901 38.0347C76.9542 38.0285 76.8125 38.0434 76.6774 38.088C76.0797 38.2856 75.7549 38.9328 75.9529 39.5319C76.1509 40.131 76.7974 40.4572 77.3952 40.2597C77.9613 40.0725 78.2764 39.4828 78.1425 38.9137L78.154 38.9099L77.0888 35.687L79.7795 33.8169L80.3963 35.6832C80.2633 35.6761 80.1254 35.6929 79.9903 35.7376C79.3926 35.9351 79.0678 36.5824 79.2658 37.1814C79.4638 37.7805 80.1103 38.1067 80.7081 37.9092C81.3058 37.7116 81.6306 37.0644 81.4326 36.4653C81.4307 36.4595 81.4259 36.4547 81.424 36.449L79.7115 31.2676L79.7144 31.2666ZM79.5358 33.0796L76.8461 34.9525L76.4777 33.8379L79.1684 31.9678L79.5358 33.0796Z" fill="#4A5161"/>
<path d="M109.475 15.0273C109.343 14.627 109.746 14.0145 109.57 13.6447C109.388 13.2672 108.658 13.2016 108.43 12.8585C108.2 12.5096 108.431 11.8103 108.163 11.4996C107.89 11.1842 107.167 11.3113 106.859 11.0361C106.547 10.7589 106.592 10.0253 106.247 9.79118C105.901 9.55703 105.239 9.8685 104.868 9.68126C104.497 9.49401 104.352 8.77523 103.959 8.63682C103.57 8.50035 103.005 8.97133 102.597 8.88563C102.193 8.80185 101.864 8.14386 101.449 8.11183C101.037 8.08174 100.618 8.68362 100.201 8.70625C99.7915 8.72987 99.3034 8.17877 98.8925 8.25705C98.4903 8.33248 98.2411 9.02506 97.8416 9.15707C97.4422 9.28909 96.8303 8.88433 96.4614 9.06057C96.0848 9.24253 96.0202 9.9731 95.678 10.2012C95.3301 10.4312 94.6317 10.1988 94.322 10.4673C94.0075 10.7406 94.1353 11.465 93.861 11.773C93.5847 12.0847 92.8524 12.0392 92.6191 12.3847C92.3859 12.7301 92.6977 13.3938 92.5112 13.7653C92.3248 14.1368 91.6075 14.2812 91.4699 14.675C91.3342 15.0648 91.8051 15.6312 91.72 16.0395C91.637 16.4439 90.9806 16.7727 90.9492 17.1888C90.9197 17.6011 91.521 18.0221 91.5442 18.4394C91.5683 18.8499 91.0188 19.3382 91.0975 19.7499C91.1762 20.152 91.865 20.4036 91.9973 20.8039C92.1296 21.2042 91.7264 21.8167 91.9028 22.1865C92.085 22.564 92.8143 22.6296 93.0425 22.9727C93.2725 23.3216 93.0414 24.021 93.3099 24.3316C93.5831 24.647 94.3061 24.5199 94.6138 24.7952C94.9254 25.0724 94.8809 25.8059 95.2261 26.04C95.5712 26.2742 96.2333 25.9627 96.6044 26.15C96.9755 26.3372 97.1206 27.056 97.5138 27.1944C97.9032 27.3309 98.4679 26.8599 98.8756 26.9456C99.2794 27.0294 99.6084 27.6873 100.024 27.7194C100.435 27.7495 100.855 27.1476 101.271 27.125C101.681 27.1013 102.169 27.6524 102.58 27.5742C102.981 27.4958 103.232 26.8062 103.631 26.6741C104.031 26.5421 104.642 26.9469 105.011 26.7706C105.388 26.5887 105.452 25.8581 105.795 25.63C106.143 25.4 106.841 25.6324 107.151 25.3639C107.465 25.0906 107.337 24.3662 107.612 24.0582C107.888 23.7465 108.62 23.792 108.854 23.4465C109.087 23.1011 108.775 22.4374 108.961 22.0659C109.148 21.6944 109.865 21.55 110.003 21.1562C110.139 20.7664 109.668 20.2 109.753 19.7917C109.836 19.3873 110.492 19.0585 110.524 18.6424C110.553 18.2301 109.952 17.8091 109.929 17.3918C109.904 16.9813 110.454 16.493 110.375 16.0813C110.298 15.6754 109.608 15.4277 109.475 15.0273Z" fill="#4A5161"/>
<path d="M102.68 27.7035C102.657 27.7111 102.633 27.7159 102.609 27.7206C102.339 27.7715 102.074 27.6258 101.819 27.4831C101.628 27.377 101.433 27.2689 101.283 27.2771C101.127 27.2871 100.941 27.4189 100.76 27.5487C100.527 27.7187 100.281 27.8924 100.013 27.8724C99.7413 27.8504 99.5225 27.6416 99.3152 27.4386C99.1594 27.2856 98.996 27.1287 98.8448 27.0956C98.6936 27.0626 98.4809 27.1424 98.274 27.2204C98.0019 27.3231 97.7212 27.4286 97.4648 27.3377C97.2085 27.2467 97.0529 26.9882 96.904 26.7403C96.7905 26.551 96.675 26.356 96.5373 26.2865C96.3995 26.217 96.1745 26.2402 95.9553 26.2616C95.6651 26.2904 95.3655 26.3191 95.1398 26.1669C94.9142 26.0146 94.8314 25.7257 94.7515 25.4454C94.6907 25.2323 94.6279 25.0135 94.5113 24.9114C94.3976 24.8084 94.1727 24.7741 93.9564 24.737C93.6693 24.6881 93.3697 24.6402 93.193 24.4334C93.0173 24.2295 93.0102 23.9284 93.0069 23.6387C93.0035 23.4162 92.9981 23.188 92.9132 23.0563C92.8301 22.9304 92.6235 22.8358 92.4284 22.7469C92.1616 22.6242 91.8851 22.5016 91.7669 22.2499C91.6515 22.0069 91.7219 21.7185 91.7923 21.4396C91.8454 21.224 91.9023 21.0007 91.8528 20.851C91.8033 20.7012 91.6246 20.5558 91.4535 20.4143C91.2308 20.2323 90.9985 20.0407 90.9502 19.7787C90.899 19.5081 91.044 19.243 91.1862 18.9883C91.2919 18.7968 91.3994 18.6015 91.3911 18.451C91.3809 18.2946 91.2491 18.1081 91.1202 17.9303C90.9502 17.6957 90.7765 17.4497 90.7961 17.1812C90.8177 16.9089 91.0259 16.69 91.2282 16.4825C91.3807 16.3267 91.5371 16.1632 91.5699 16.0118C91.6028 15.8603 91.5227 15.6472 91.4446 15.4398C91.3418 15.1671 91.236 14.8857 91.3265 14.629C91.417 14.3723 91.6748 14.2168 91.922 14.068C92.1109 13.9545 92.3054 13.839 92.3746 13.7012C92.4438 13.5633 92.4203 13.3378 92.3987 13.1182C92.3695 12.8275 92.3404 12.5272 92.4931 12.3042C92.6447 12.0784 92.933 11.9959 93.2127 11.9162C93.4254 11.8555 93.6438 11.793 93.7455 11.6763C93.8481 11.5625 93.882 11.3372 93.9188 11.1206C93.9672 10.833 94.0147 10.533 94.2208 10.3563C94.4241 10.1805 94.7247 10.1738 95.0139 10.1708C95.236 10.1677 95.4638 10.1627 95.5951 10.0778C95.7207 9.99474 95.8149 9.7879 95.9033 9.59254C96.0254 9.32536 96.1475 9.0486 96.3957 8.93144C96.6381 8.81617 96.9261 8.88711 97.2046 8.95801C97.4199 9.01145 97.6428 9.06875 97.7922 9.01936C97.9417 8.96998 98.0866 8.7911 98.2276 8.61989C98.409 8.39702 98.5999 8.16459 98.8614 8.11652C99.1314 8.0656 99.3963 8.21127 99.6536 8.35307C99.8448 8.45918 100.04 8.56722 100.19 8.55907C100.346 8.54903 100.532 8.41728 100.71 8.28838C100.944 8.11843 101.189 7.94467 101.457 7.96471C101.729 7.98669 101.948 8.1955 102.155 8.39853C102.311 8.55151 102.474 8.70836 102.625 8.74145C102.777 8.77455 102.992 8.69372 103.196 8.6167C103.468 8.514 103.749 8.40845 104.005 8.49942C104.262 8.59039 104.417 8.84887 104.567 9.09966C104.681 9.28896 104.796 9.48401 104.934 9.55351C105.072 9.623 105.297 9.59975 105.516 9.57839C105.806 9.5496 106.106 9.52083 106.331 9.67309C106.557 9.82534 106.64 10.1143 106.72 10.3946C106.78 10.6077 106.843 10.8265 106.96 10.9286C107.073 11.0315 107.298 11.0658 107.515 11.103C107.802 11.1518 108.101 11.1998 108.278 11.4066C108.454 11.6104 108.461 11.9116 108.464 12.2012C108.468 12.4237 108.473 12.652 108.558 12.7837C108.641 12.9096 108.848 13.0042 109.043 13.0931C109.31 13.2157 109.586 13.3384 109.703 13.5872C109.819 13.8302 109.748 14.1186 109.678 14.3975C109.625 14.6131 109.568 14.8364 109.617 14.9861C109.667 15.1359 109.846 15.2813 110.017 15.4228C110.239 15.6048 110.472 15.7964 110.52 16.0583C110.571 16.329 110.426 16.5941 110.285 16.8517C110.179 17.0431 110.069 17.2394 110.08 17.389C110.09 17.5454 110.222 17.7319 110.352 17.9126C110.522 18.1471 110.696 18.3932 110.676 18.6617C110.654 18.9339 110.446 19.1529 110.244 19.3604C110.091 19.5162 109.935 19.6797 109.902 19.8311C109.869 19.9825 109.949 20.1957 110.027 20.4031C110.13 20.6758 110.236 20.9571 110.146 21.2138C110.055 21.4706 109.797 21.6261 109.547 21.7758C109.358 21.8893 109.164 22.0048 109.095 22.1426C109.025 22.2805 109.049 22.506 109.07 22.7256C109.1 23.0163 109.129 23.3166 108.977 23.5424C108.824 23.7654 108.537 23.8508 108.257 23.9304C108.045 23.9911 107.826 24.0537 107.725 24.1704C107.622 24.2842 107.588 24.5095 107.551 24.7261C107.503 25.0136 107.455 25.3137 107.249 25.4904C107.046 25.6662 106.745 25.6729 106.456 25.6758C106.234 25.679 106.009 25.683 105.875 25.7689C105.749 25.8519 105.655 26.0588 105.567 26.2541C105.445 26.5213 105.323 26.7981 105.072 26.9162C104.833 27.0334 104.541 26.9605 104.263 26.8896C104.047 26.8362 103.824 26.7789 103.675 26.8283C103.526 26.8777 103.381 27.0565 103.24 27.2277C103.076 27.419 102.907 27.6285 102.68 27.7035ZM101.082 27.0079C101.14 26.9889 101.199 26.9757 101.261 26.9711C101.499 26.9565 101.737 27.0886 101.964 27.215C102.171 27.3317 102.389 27.4513 102.551 27.4202C102.706 27.3881 102.859 27.2035 103.008 27.0199C103.176 26.8142 103.352 26.6028 103.585 26.5259C103.817 26.449 104.085 26.517 104.342 26.5792C104.568 26.6355 104.804 26.6948 104.948 26.6281C105.096 26.5566 105.197 26.3316 105.297 26.1133C105.404 25.8767 105.516 25.6287 105.716 25.4989C105.92 25.3643 106.193 25.3604 106.456 25.3565C106.69 25.3524 106.935 25.3484 107.056 25.2443C107.18 25.1363 107.221 24.8929 107.258 24.6599C107.3 24.4002 107.343 24.1337 107.503 23.953C107.663 23.7722 107.925 23.6954 108.178 23.6243C108.405 23.5588 108.641 23.4905 108.731 23.3585C108.824 23.2226 108.797 22.9789 108.774 22.7439C108.747 22.481 108.722 22.2114 108.829 21.9941C108.935 21.7767 109.17 21.6384 109.396 21.503C109.599 21.3818 109.808 21.255 109.863 21.1026C109.915 20.9513 109.83 20.7208 109.747 20.499C109.652 20.2523 109.558 19.9959 109.607 19.7592C109.657 19.5225 109.845 19.3293 110.028 19.141C110.195 18.9708 110.365 18.793 110.375 18.63C110.386 18.4699 110.244 18.2709 110.107 18.0796C109.954 17.8653 109.794 17.6432 109.78 17.3986C109.765 17.1607 109.897 16.9223 110.023 16.6955C110.139 16.4877 110.258 16.2695 110.227 16.1073C110.198 15.9509 110.01 15.7987 109.827 15.6485C109.621 15.48 109.41 15.3039 109.333 15.0706C109.256 14.8373 109.323 14.569 109.385 14.3121C109.441 14.086 109.5 13.8493 109.433 13.7052C109.362 13.5564 109.137 13.4549 108.919 13.3545C108.682 13.2473 108.435 13.1343 108.305 12.9344C108.17 12.7297 108.166 12.4563 108.162 12.1926C108.157 11.9576 108.153 11.713 108.049 11.5909C107.941 11.4669 107.698 11.4258 107.465 11.3876C107.206 11.3456 106.94 11.3025 106.759 11.1418C106.579 10.981 106.502 10.719 106.43 10.4646C106.365 10.2371 106.296 10.001 106.164 9.91039C106.029 9.82076 105.785 9.84395 105.551 9.86717C105.288 9.89318 105.019 9.91821 104.802 9.81106C104.588 9.70296 104.447 9.4685 104.311 9.24174C104.19 9.03899 104.063 8.82855 103.911 8.7734C103.76 8.72113 103.53 8.8067 103.309 8.88942C103.061 8.98069 102.807 9.0777 102.57 9.02802C102.334 8.97835 102.141 8.78976 101.953 8.60598C101.782 8.43856 101.605 8.26729 101.442 8.25717C101.282 8.24611 101.084 8.38836 100.893 8.52489C100.679 8.67861 100.458 8.83805 100.214 8.85165C99.9762 8.86623 99.7381 8.73408 99.5114 8.60772C99.3039 8.49101 99.0858 8.37139 98.924 8.40251C98.7679 8.43174 98.6163 8.61922 98.4666 8.80288C98.2987 9.00853 98.1241 9.22279 97.8913 9.29972C97.6585 9.37665 97.3906 9.30866 97.1332 9.24357C96.9074 9.18722 96.671 9.12796 96.5273 9.19463C96.3788 9.26608 96.2778 9.49113 96.1779 9.70946C96.0712 9.946 95.9587 10.194 95.7593 10.3238C95.5552 10.4584 95.2823 10.4623 95.019 10.4662C94.7845 10.4703 94.5404 10.4743 94.4186 10.5784C94.2949 10.6864 94.2542 10.9299 94.2165 11.1628C94.1748 11.4226 94.1322 11.689 93.972 11.8698C93.8118 12.0505 93.5493 12.1245 93.2964 12.1985C93.0694 12.2639 92.8338 12.3322 92.7436 12.4643C92.6543 12.5992 92.6778 12.8438 92.7013 13.0789C92.7276 13.3417 92.7529 13.6113 92.6462 13.8286C92.5396 14.046 92.3048 14.1843 92.0786 14.3198C91.8764 14.4409 91.6665 14.5678 91.6116 14.7201C91.5596 14.8714 91.6454 15.1019 91.7282 15.3237C91.8197 15.5714 91.9168 15.8268 91.8676 16.0635C91.8183 16.3003 91.6303 16.4934 91.4471 16.6817C91.2802 16.8519 91.1095 17.0297 91.0996 17.1927C91.0887 17.3529 91.231 17.5518 91.3675 17.7431C91.5213 17.9575 91.6807 18.1795 91.6946 18.4241C91.7095 18.662 91.5779 18.9004 91.4521 19.1273C91.3358 19.335 91.2167 19.5533 91.248 19.7155C91.2774 19.8719 91.4647 20.024 91.6483 20.1742C91.8538 20.3427 92.065 20.5189 92.1421 20.7522C92.2192 20.9855 92.1517 21.2538 92.0899 21.5106C92.034 21.7367 91.9751 21.9734 92.0419 22.1175C92.1134 22.2664 92.3391 22.3707 92.5563 22.4682C92.7925 22.5754 93.0403 22.6885 93.1701 22.8883C93.3047 23.0931 93.3089 23.3664 93.3132 23.6301C93.3176 23.8651 93.3219 24.1097 93.426 24.2318C93.534 24.3559 93.777 24.3969 94.0096 24.4351C94.269 24.4772 94.535 24.5202 94.7156 24.681C94.8963 24.8417 94.9733 25.1038 95.0446 25.3581C95.1103 25.5856 95.1788 25.8218 95.3107 25.9123C95.4465 26.0048 95.6897 25.9788 95.9243 25.9556C96.1866 25.9295 96.4557 25.9045 96.6728 26.0117C96.8899 26.1188 97.0282 26.3542 97.1638 26.581C97.285 26.7837 97.4119 26.9942 97.564 27.0493C97.7152 27.1016 97.9451 27.016 98.1664 26.9333C98.4126 26.8392 98.6684 26.745 98.9047 26.7947C99.1411 26.8444 99.3341 27.033 99.5224 27.2167C99.6924 27.3842 99.8702 27.5554 100.033 27.5656C100.193 27.5766 100.388 27.4353 100.582 27.2978C100.742 27.1842 100.907 27.0658 101.082 27.0079Z" fill="#4A5161"/>
<path d="M96.8566 22.3147C96.7474 22.3508 96.6202 22.3226 96.538 22.2283C96.1654 21.8148 95.8408 21.3534 95.5747 20.8567C93.9396 17.7902 94.8962 14.078 97.703 12.5785C100.51 11.079 104.122 12.3546 105.757 15.4211C105.851 15.5979 105.94 15.7794 106.016 15.9619C106.082 16.1155 106.01 16.2927 105.857 16.3593C105.7 16.4241 105.527 16.3535 105.46 16.1998C105.39 16.0346 105.309 15.8694 105.224 15.7061C103.747 12.9355 100.503 11.7714 97.9883 13.1136C95.4766 14.4549 94.6317 17.8011 96.1084 20.5717C96.3507 21.0251 96.6467 21.448 96.9839 21.8222C97.0957 21.9482 97.0886 22.139 96.963 22.2508C96.9352 22.2824 96.8969 22.3014 96.8566 22.3147Z" fill="white"/>
<path d="M96.9046 22.459C96.735 22.515 96.5465 22.4655 96.4261 22.3328C96.044 21.9096 95.7127 21.4376 95.4428 20.9294C94.6357 19.4135 94.4149 17.6942 94.8296 16.0939C95.2423 14.4879 96.2385 13.1907 97.6347 12.4481C99.0299 11.7026 100.659 11.5957 102.222 12.1493C103.781 12.7009 105.085 13.8387 105.892 15.3547C105.986 15.5343 106.077 15.7216 106.157 15.906C106.255 16.1355 106.149 16.4037 105.917 16.5027C105.68 16.6036 105.421 16.4944 105.321 16.262C105.253 16.1026 105.177 15.9393 105.093 15.7817C103.657 13.087 100.502 11.951 98.063 13.2522C95.6242 14.5534 94.8091 17.8067 96.2458 20.5043C96.4824 20.95 96.7707 21.3595 97.1022 21.726C97.2694 21.9135 97.2554 22.1993 97.0723 22.3684C97.0215 22.4076 96.9649 22.439 96.9046 22.459ZM98.5912 12.362C98.3125 12.4541 98.0385 12.5703 97.7759 12.7113C96.4563 13.4158 95.5139 14.6442 95.1214 16.1668C94.728 17.6962 94.9384 19.3358 95.7101 20.7836C95.9696 21.2697 96.2856 21.7243 96.6515 22.1273C96.706 22.186 96.8046 22.1949 96.865 22.1366C96.9263 22.0812 96.9323 21.9834 96.874 21.9228C96.5272 21.539 96.2246 21.1055 95.9756 20.6415C94.4588 17.7979 95.3307 14.3597 97.9151 12.9784C100.501 11.6 103.839 12.7903 105.353 15.6349C105.443 15.8001 105.522 15.972 105.594 16.1401C105.626 16.2188 105.713 16.2508 105.795 16.2203C105.832 16.2051 105.861 16.1764 105.873 16.1372C105.889 16.0998 105.889 16.0586 105.873 16.0221C105.799 15.8454 105.711 15.6667 105.62 15.4957C104.847 14.0451 103.602 12.9583 102.115 12.4338C100.933 12.0128 99.7091 11.9925 98.5912 12.362Z" fill="#263238"/>
<path d="M129.829 57.4C129.829 57.4 140.557 50.6724 143.053 46.0138C143.053 46.0138 143.807 51.8347 146.676 54.0813C149.544 56.328 159.707 61.4224 161.557 62.514C163.406 63.6056 167.108 66.3881 167.841 66.0404C168.577 65.6918 169.541 61.5394 169.893 60.3562C170.246 59.1758 171.211 58.1796 170.864 56.4858C170.517 54.7891 169.526 55.0113 169.303 55.6186C169.079 56.2259 167.595 58.3808 166.478 59.1752C165.36 59.9695 164.161 60.8642 164.161 60.8642C164.161 60.8642 159.778 57.7314 155.892 53.69C152.007 49.6486 146.635 41.4211 145.267 39.8477C143.897 38.2782 142.558 38.082 141.121 38.5569C139.684 39.0318 135.086 40.5515 128.213 46.7621C121.34 52.9727 122.77 56.3339 123.95 57.3303C125.129 58.3305 127.395 58.754 129.829 57.4Z" fill="#4592D0"/>
<path d="M167.865 66.1986C167.267 66.3961 165.695 65.4013 163.386 63.8739C162.676 63.4026 162.002 62.9574 161.48 62.6507C160.958 62.3441 159.771 61.714 158.268 60.917C154.439 58.8888 148.651 55.8243 146.586 54.2065C144.126 52.2815 143.209 47.8756 142.97 46.4689C140.149 51.0785 130.336 57.2643 129.911 57.5325C129.908 57.5334 129.905 57.5344 129.903 57.5382C127.422 58.9141 125.079 58.4875 123.854 57.4545C123.549 57.1974 122.839 56.4481 122.813 55.0382C122.785 53.4279 123.682 50.665 128.114 46.6571C135.011 40.4225 139.575 38.9143 141.075 38.4185C142.739 37.8686 144.11 38.294 145.383 39.7549C145.844 40.2829 146.743 41.5449 147.883 43.1425C150.218 46.4184 153.418 50.9007 156.003 53.5923C159.531 57.2633 163.518 60.2137 164.161 60.6818C164.46 60.4584 165.459 59.7193 166.391 59.0567C167.487 58.2758 168.953 56.1332 169.162 55.569C169.29 55.2232 169.615 55.0008 169.955 55.0259C170.19 55.0439 170.761 55.2193 171.015 56.4611C171.269 57.7001 170.859 58.5638 170.461 59.3949C170.298 59.7397 170.143 60.0624 170.04 60.4063C169.974 60.6296 169.883 60.963 169.777 61.3559C169.139 63.736 168.513 65.8947 167.907 66.1814C167.893 66.1891 167.879 66.1938 167.865 66.1986ZM143.006 45.8725C143.029 45.8649 143.057 45.8621 143.081 45.867C143.145 45.8778 143.194 45.9316 143.203 45.9959C143.21 46.0544 143.984 51.7823 146.767 53.9644C148.811 55.5668 154.584 58.6236 158.405 60.648C159.913 61.4469 161.106 62.0779 161.633 62.3894C162.16 62.7009 162.837 63.148 163.551 63.6212C165.056 64.6158 167.335 66.1182 167.778 65.9077C168.31 65.6553 169.104 62.6963 169.486 61.2763C169.594 60.8796 169.684 60.5433 169.75 60.32C169.859 59.955 170.027 59.6055 170.187 59.2684C170.564 58.4794 170.951 57.6645 170.718 56.5244C170.569 55.8037 170.275 55.3578 169.931 55.3308C169.728 55.3148 169.527 55.458 169.446 55.6764C169.222 56.2808 167.726 58.4779 166.568 59.3047C165.464 60.0914 164.266 60.9823 164.254 60.9928C164.2 61.033 164.13 61.0337 164.076 60.9942C164.031 60.9643 159.637 57.8065 155.786 53.8017C153.183 51.0965 149.979 46.5998 147.636 43.3201C146.501 41.7302 145.605 40.4739 145.153 39.9555C143.952 38.5793 142.725 38.1927 141.167 38.7075C139.681 39.1985 135.164 40.6916 128.313 46.8821C123.963 50.8116 123.083 53.4826 123.111 55.0325C123.133 56.3157 123.771 56.99 124.045 57.222C125.19 58.1886 127.394 58.5783 129.749 57.273C129.991 57.1194 140.483 50.4888 142.919 45.9461C142.939 45.9107 142.972 45.8839 143.006 45.8725ZM129.83 57.4027L129.833 57.4018L129.83 57.4027Z" fill="#263238"/>
<path d="M170.866 56.4882C170.519 54.7915 169.528 55.0137 169.305 55.621C169.081 56.2283 167.597 58.3833 166.479 59.1776C165.362 59.9719 164.162 60.8667 164.162 60.8667C164.162 60.8667 160.748 58.4264 157.276 55.0759C156.781 57.0125 155.747 58.2617 154.95 58.9755C157.916 60.5704 160.679 61.9957 161.558 62.5164C163.408 63.608 167.11 66.3906 167.843 66.0429C168.579 65.6942 169.543 61.5419 169.895 60.3586C170.25 59.1773 171.216 58.1839 170.866 56.4882Z" fill="#FEDEA5"/>
<path d="M167.865 66.1983C167.267 66.3958 165.695 65.401 163.386 63.8735C162.676 63.4023 162.003 62.9571 161.481 62.6504C160.958 62.3438 159.768 61.7118 158.261 60.9128C157.24 60.3715 156.074 59.7569 154.879 59.1105C154.836 59.0864 154.806 59.045 154.8 58.9961C154.793 58.9472 154.812 58.8993 154.849 58.8649C155.618 58.173 156.641 56.9497 157.129 55.0409C157.144 54.9882 157.185 54.949 157.234 54.9329C157.287 54.9186 157.342 54.9322 157.38 54.9707C160.497 57.9758 163.599 60.2731 164.158 60.6825C164.457 60.459 165.456 59.7199 166.388 59.0574C167.484 58.2764 168.95 56.1339 169.159 55.5697C169.287 55.2239 169.612 55.0015 169.952 55.0265C170.187 55.0445 170.758 55.22 171.013 56.4618C171.266 57.7007 170.857 58.5644 170.459 59.3956C170.295 59.7403 170.141 60.063 170.037 60.407C169.971 60.6302 169.88 60.9636 169.774 61.3565C169.136 63.7367 168.511 65.8954 167.904 66.1821C167.894 66.1888 167.879 66.1935 167.865 66.1983ZM155.209 58.9437C156.341 59.5506 157.435 60.1314 158.404 60.6419C159.915 61.4427 161.108 62.0738 161.635 62.3852C162.162 62.6967 162.839 63.1439 163.553 63.6171C165.058 64.6116 167.337 66.1141 167.78 65.9036C168.312 65.6511 169.106 62.6922 169.488 61.2721C169.596 60.8755 169.686 60.5391 169.752 60.3159C169.861 59.9509 170.029 59.6013 170.189 59.2643C170.566 58.4753 170.953 57.6604 170.72 56.5203C170.571 55.7996 170.277 55.3536 169.933 55.3266C169.73 55.3106 169.529 55.4538 169.448 55.6722C169.224 56.2767 167.728 58.4738 166.57 59.3006C165.466 60.0873 164.269 60.9782 164.256 60.9887C164.202 61.0288 164.132 61.0295 164.078 60.99C164.045 60.966 160.739 58.5923 157.36 55.361C156.86 57.0818 155.952 58.2383 155.209 58.9437Z" fill="#263238"/>
<path d="M103.039 25.547C103.039 25.547 105.16 27.7308 105.58 28.5281C105.999 29.3255 105.179 30.1428 104.266 30.6779C103.353 31.213 101.624 31.1614 100.661 33.4283C99.6988 35.6952 98.4442 44.6111 98.276 45.9925C98.1106 47.373 98.9966 48.1728 100.446 47.3805C101.896 46.5882 104.222 39.7367 104.222 39.7367C104.222 39.7367 111.412 44.3028 112.485 45.4273C113.559 46.5548 114.089 48.8744 114.719 51.2414C115.345 53.6094 116.109 57.0979 119.119 59.1446C122.129 61.1912 126.805 60.5052 129.826 57.3981C132.845 54.2948 134.619 46.4374 131.981 44.3479C129.344 42.2544 124.968 42.2375 122.939 40.1C120.91 37.9625 120.861 36.426 120.001 33.8252C119.142 31.2244 117.459 28.0619 117.459 28.0619C117.459 28.0619 123.018 24.6273 129.693 21.3574C132.013 20.2198 129.581 17.963 127.993 17.8649C126.001 17.7405 118.481 21.1333 116.291 21.6336C113.129 22.359 111.776 23.5122 111.238 24.2365C110.699 24.9607 110.021 25.9645 109.225 26.1509C108.429 26.3373 106.334 22.8157 106.334 22.8157C106.334 22.8157 104.861 25.1778 103.039 25.547Z" fill="#F37630"/>
<path d="M125.978 59.9822C123.567 60.7791 120.973 60.5885 119.036 59.2703C116.145 57.3056 115.299 54.0585 114.68 51.6848L114.412 50.6616C113.857 48.5384 113.33 46.5305 112.378 45.5319C111.42 44.5228 105.378 40.651 104.307 39.9666C103.918 41.0855 101.888 46.766 100.521 47.5116C99.7997 47.9034 99.1486 47.9493 98.6916 47.6371C98.2432 47.3316 98.0366 46.7258 98.128 45.9704C98.2729 44.7596 99.5402 35.6798 100.522 33.3649C101.267 31.6075 102.448 31.198 103.395 30.8692C103.693 30.7675 103.97 30.6697 104.189 30.5428C104.597 30.3025 105.895 29.455 105.445 28.5943C105.041 27.8267 102.951 25.6679 102.928 25.6468C102.89 25.6083 102.876 25.5488 102.891 25.4961C102.908 25.4424 102.949 25.4032 103.006 25.3909C104.744 25.0369 106.192 22.7533 106.207 22.7323C106.234 22.6882 106.286 22.6616 106.337 22.6608C106.388 22.6628 106.438 22.6879 106.466 22.7331C107.468 24.4146 108.763 26.0952 109.193 25.9978C109.865 25.8427 110.483 25.0026 110.981 24.33L111.12 24.1406C111.617 23.4747 112.943 22.2409 116.259 21.4805C117.08 21.2923 118.711 20.6732 120.438 20.0161C123.39 18.8968 126.735 17.6282 128.004 17.7042C129.071 17.77 130.559 18.7827 130.775 19.8681C130.868 20.3325 130.767 20.992 129.76 21.4846C123.702 24.4515 118.506 27.5938 117.659 28.1099C117.981 28.7257 119.388 31.4779 120.145 33.7705C120.334 34.3407 120.48 34.8514 120.624 35.3438C121.126 37.0851 121.488 38.3455 123.052 39.9886C124.083 41.0756 125.742 41.6007 127.498 42.1578C129.119 42.6732 130.792 43.2032 132.076 44.2229C132.844 44.8315 133.302 45.9455 133.399 47.4438C133.615 50.8001 132.063 55.3131 129.935 57.4986C128.808 58.6698 127.426 59.5035 125.978 59.9822ZM104.178 39.5941C104.221 39.5798 104.268 39.5867 104.307 39.6089C104.601 39.7959 111.523 44.198 112.597 45.3255C113.603 46.3827 114.138 48.4262 114.704 50.5906L114.972 51.6138C115.578 53.9404 116.41 57.1223 119.206 59.0225C122.187 61.0499 126.806 60.2898 129.719 57.2984C131.761 55.2018 133.306 50.7042 133.097 47.4764C133.004 46.0663 132.587 45.0282 131.888 44.4736C130.648 43.4904 128.999 42.9682 127.407 42.4625C125.613 41.8928 123.917 41.3541 122.832 40.2113C121.219 38.5144 120.828 37.158 120.334 35.4398C120.191 34.9502 120.045 34.4424 119.859 33.8779C119.013 31.3175 117.344 28.1694 117.328 28.1396C117.292 28.0685 117.314 27.9813 117.383 27.9393C117.439 27.905 123.024 24.4647 129.63 21.2272C130.3 20.9004 130.587 20.4668 130.484 19.9419C130.295 18.9948 128.931 18.0812 127.99 18.0216C126.786 17.9468 123.328 19.2591 120.55 20.3147C118.737 21.0032 117.171 21.5975 116.329 21.7895C113.105 22.5291 111.836 23.7027 111.362 24.3351L111.223 24.5216C110.697 25.2354 110.044 26.1223 109.262 26.3039C108.478 26.4865 106.873 23.9946 106.33 23.1038C105.944 23.6626 104.779 25.201 103.325 25.6336C103.853 26.1877 105.355 27.7836 105.71 28.4618C106.099 29.2025 105.589 30.0803 104.339 30.8128C104.095 30.9539 103.801 31.0575 103.493 31.1659C102.6 31.4737 101.491 31.8595 100.797 33.4943C99.8282 35.7795 98.5705 44.8114 98.4237 46.0164C98.3469 46.652 98.5039 47.156 98.8567 47.394C99.2181 47.6388 99.7562 47.5887 100.372 47.2541C101.48 46.6515 103.279 42.0444 104.077 39.6945C104.098 39.6427 104.132 39.6093 104.178 39.5941Z" fill="#263238"/>
<path d="M119.588 20.5081C119.392 20.5822 119.2 20.6555 119.012 20.7239C119.375 21.9584 120.198 23.9165 121.962 25.4355C122.145 25.3335 122.336 25.2257 122.526 25.118C120.758 23.6737 119.94 21.7013 119.588 20.5081Z" fill="#263238"/>
<path d="M122.144 39.1512C122.018 38.9849 121.903 38.8186 121.798 38.6552C117.77 41.06 115.024 45.0982 113.645 47.5125C113.736 47.7602 113.821 48.0165 113.907 48.2853C115.145 46.0135 117.931 41.6455 122.144 39.1512Z" fill="#263238"/>
<path d="M111.667 44.7385C111.854 44.881 112.022 45.0139 112.159 45.1285C113.031 43.4184 115.418 39.5948 120.66 36.0028C120.6 35.8022 120.54 35.592 120.48 35.3818C115.082 39.0125 112.616 42.8848 111.667 44.7385Z" fill="#263238"/>
<path d="M104.221 36.551C105.216 36.0977 109.888 33.7229 115.51 26.7372C116.433 27.6493 117.212 28.2512 117.281 28.3051C117.362 28.3677 117.47 28.3834 117.562 28.353C117.576 28.3483 117.592 28.3397 117.606 28.3321C117.518 28.163 117.466 28.065 117.466 28.065C117.466 28.065 117.556 28.0097 117.723 27.9066C117.703 27.8749 117.681 27.847 117.651 27.822C117.616 27.795 114.374 25.295 113.267 22.68C113.076 22.7752 112.894 22.8734 112.732 22.9717C112.955 23.4797 113.245 23.9813 113.574 24.4571C109.475 30.1885 104.404 32.7625 103.01 33.389C102.619 32.6877 102.225 32.1407 101.914 31.758C101.758 31.8765 101.605 32.0102 101.457 32.1709C101.724 32.5074 102.062 32.9803 102.403 33.577C101.926 33.281 101.401 33.0904 100.888 32.966C100.811 33.1096 100.733 33.2599 100.664 33.4266C100.65 33.4601 100.636 33.4965 100.622 33.53C101.578 33.7412 102.588 34.2029 103.157 35.1743C103.357 35.6928 103.533 36.264 103.665 36.8849C103.002 36.2287 101.832 35.4174 100.083 35.3821C100.038 35.5728 99.9923 35.7731 99.9479 35.9762C102.603 35.955 103.748 37.896 103.814 38.0113C103.828 38.0324 103.843 38.0497 103.861 38.0661C103.898 38.399 103.921 38.7395 103.927 39.0953C103.159 38.5347 101.58 37.6444 99.5633 37.8604C99.5256 38.0646 99.485 38.2697 99.4482 38.4767C101.815 38.1257 103.517 39.493 103.922 39.8606C103.916 40.1215 103.913 40.3746 103.91 40.6249C104.109 40.0799 104.227 39.7312 104.227 39.7312C104.227 39.7312 104.336 39.8006 104.525 39.9201C104.527 39.8587 104.527 39.8012 104.529 39.7398C104.566 38.568 104.44 37.5012 104.221 36.551ZM113.943 24.9742C114.307 25.4511 114.697 25.8973 115.082 26.3004C109.739 32.9542 105.176 35.4176 104.064 35.9511C103.985 35.6737 103.898 35.4087 103.807 35.1543C103.805 35.1169 103.794 35.0756 103.776 35.0401C103.768 35.0266 103.761 35.0132 103.752 34.9968C103.606 34.6137 103.45 34.2565 103.288 33.9299C104.778 33.249 109.826 30.6509 113.943 24.9742Z" fill="#263238"/>
<path d="M124.464 41.1857C124.26 41.0805 124.065 40.9724 123.879 40.852C119.351 43.9331 116.343 48.0866 114.647 50.9602C114.672 51.0542 114.697 51.1483 114.722 51.2424C114.767 51.419 114.816 51.6042 114.864 51.7895C116.484 48.9281 119.594 44.4086 124.464 41.1857Z" fill="#263238"/>
<path d="M119.795 33.2216C119.727 33.0334 119.654 32.8433 119.582 32.6532C112.337 35.482 109.954 40.4709 109.188 42.9859C109.365 43.1063 109.538 43.2248 109.71 43.3405C110.365 41.0313 112.575 36.0457 119.795 33.2216Z" fill="#263238"/>
<path d="M123.372 19.0909C123.175 19.1622 122.979 19.2335 122.78 19.3058C123.015 20.5859 123.575 22.2727 124.868 23.8391C125.049 23.7409 125.234 23.6446 125.42 23.5445C124.13 22.0127 123.592 20.3278 123.372 19.0909Z" fill="#263238"/>
<path d="M115.526 21.831C116.223 23.2238 117.453 25.2868 119.277 26.9777C119.451 26.8756 119.635 26.7669 119.827 26.6553C118.06 25.0605 116.839 23.0522 116.131 21.6727C115.925 21.7248 115.722 21.776 115.526 21.831Z" fill="#263238"/>
<path d="M118.506 30.1686C118.416 29.9746 118.327 29.7931 118.244 29.6192C110.226 33.3874 107.207 38.3243 106.121 40.9581C106.292 41.0709 106.47 41.1846 106.653 41.3061C107.682 38.8159 110.622 33.8892 118.506 30.1686Z" fill="#263238"/>
<path d="M129.83 57.3999C132.328 54.833 133.971 49.0121 132.97 45.8959C132.756 45.315 132.444 44.8335 132.023 44.4965C131.668 44.2115 131.282 43.9235 130.88 43.6316C129.585 42.9351 128.07 42.5188 126.654 42.0539C121.106 46.5425 117.62 53.0364 116.163 55.5942C116.805 56.9188 117.716 58.1895 119.123 59.1464C122.132 61.193 126.808 60.507 129.83 57.3999Z" fill="#4592D0"/>
<path d="M125.978 59.9824C123.567 60.7792 120.973 60.5887 119.036 59.2705C117.77 58.411 116.783 57.2291 116.025 55.6587C116.004 55.6145 116.005 55.5598 116.029 55.5168L116.301 55.0372C117.926 52.1615 121.305 46.1823 126.557 41.9353C126.598 41.9028 126.648 41.8925 126.699 41.9108C126.96 41.997 127.223 42.0794 127.49 42.1637C128.666 42.5386 129.884 42.9252 130.95 43.4992C131.411 43.8325 131.788 44.1138 132.115 44.3795C132.54 44.7214 132.875 45.2144 133.108 45.8433C134.115 48.9768 132.511 54.8582 129.935 57.5083C128.808 58.6699 127.426 59.5037 125.978 59.9824ZM116.333 55.5983C117.063 57.0824 118.004 58.2026 119.207 59.0188C122.188 61.0462 126.808 60.2862 129.721 57.2947C132.236 54.7096 133.801 48.9816 132.825 45.9402C132.613 45.368 132.31 44.922 131.928 44.6139C131.603 44.3539 131.233 44.0736 130.792 43.7529C129.765 43.201 128.564 42.8183 127.4 42.4492C127.16 42.3717 126.922 42.2971 126.686 42.2186C121.516 46.4256 118.175 52.3378 116.569 55.1819L116.333 55.5983Z" fill="#4592D0"/>
<path d="M96.8745 21.1332C96.7529 21.1798 96.6398 21.2427 96.5363 21.3248C95.6964 21.9762 95.7855 23.4994 96.7366 24.7281C97.6849 25.9578 99.1344 26.4276 99.9752 25.7791C100.153 25.6406 100.286 25.4655 100.381 25.2616L96.8745 21.1332Z" fill="white"/>
<path d="M99.6128 26.1392C99.242 26.2618 98.8084 26.2517 98.3482 26.1035C97.7091 25.8962 97.0934 25.4416 96.614 24.8205C96.1356 24.2023 95.8526 23.4908 95.8118 22.8174C95.77 22.122 95.9951 21.5492 96.4418 21.2035C96.5559 21.1146 96.6824 21.0441 96.8185 20.9927C96.8788 20.9728 96.9467 20.9855 96.9888 21.0355L100.491 25.1619C100.529 25.2071 100.537 25.2714 100.513 25.3241C100.403 25.5587 100.253 25.7519 100.065 25.8971C99.928 26.0031 99.7766 26.0851 99.6128 26.1392ZM96.8332 21.3169C96.7594 21.3541 96.6932 21.3951 96.63 21.4448C96.2647 21.7284 96.0829 22.2102 96.1181 22.7992C96.1543 23.4102 96.4183 24.0642 96.8585 24.6343C97.2988 25.2044 97.8647 25.6244 98.4464 25.8123C99.0099 25.9934 99.5212 25.9395 99.8836 25.6568C100.01 25.5574 100.119 25.4321 100.202 25.2799L96.8332 21.3169Z" fill="#263238"/>
<path d="M96.8746 21.1336C96.7529 21.1802 96.6398 21.2431 96.5363 21.3253C96.4395 21.3988 96.357 21.4868 96.2869 21.5834L99.9235 25.8158C99.9417 25.8034 99.9608 25.7939 99.9781 25.7786C100.155 25.6401 100.289 25.465 100.384 25.2611L96.8746 21.1336Z" fill="white"/>
<path d="M99.982 25.9461C99.9217 25.966 99.8432 25.96 99.805 25.9119L96.1684 21.6795C96.1216 21.6247 96.1179 21.5461 96.163 21.4896C96.2475 21.3787 96.3396 21.2811 96.4412 21.2028C96.5553 21.114 96.6818 21.0434 96.8178 20.9921C96.8782 20.9721 96.9461 20.9848 96.9881 21.0348L100.491 25.1613C100.528 25.2065 100.537 25.2708 100.513 25.3235C100.402 25.5581 100.252 25.7513 100.064 25.8965C100.049 25.9079 100.036 25.9156 100.02 25.927C100.007 25.9346 99.9964 25.9413 99.982 25.9461ZM96.4826 21.5789L99.9396 25.6055C100.045 25.5099 100.129 25.4057 100.196 25.2812L96.8296 21.3172C96.7559 21.3544 96.6897 21.3954 96.6265 21.4451C96.5756 21.4843 96.5267 21.5292 96.4826 21.5789Z" fill="#263238"/>
<path d="M104.577 15.3775C104.654 15.2723 104.743 15.1757 104.848 15.0964C105.688 14.4451 107.137 14.9149 108.085 16.1445C109.037 17.3732 109.126 18.8964 108.289 19.5469C108.111 19.6853 107.906 19.7691 107.687 19.8096L104.577 15.3775Z" fill="white"/>
<path d="M107.934 19.9032C107.862 19.9269 107.788 19.9449 107.711 19.9609C107.653 19.9704 107.595 19.9481 107.56 19.8991L104.45 15.467C104.414 15.4151 104.413 15.3451 104.449 15.2915C104.534 15.1709 104.637 15.0667 104.751 14.9779C105.655 14.2798 107.203 14.7585 108.202 16.0545C108.68 16.6727 108.966 17.3833 109.004 18.0576C109.046 18.753 108.824 19.3249 108.377 19.6706C108.247 19.7709 108.101 19.8481 107.934 19.9032ZM107.749 19.6417C107.916 19.5991 108.065 19.5276 108.191 19.4283C108.557 19.1447 108.739 18.6629 108.703 18.0739C108.666 17.46 108.403 16.8089 107.963 16.2388C107.066 15.0784 105.707 14.6204 104.935 15.2173C104.872 15.267 104.813 15.3214 104.76 15.3836L107.749 19.6417Z" fill="#263238"/>
<path d="M107.934 19.9035C107.862 19.9273 107.789 19.9453 107.711 19.9613C107.654 19.9707 107.595 19.9485 107.56 19.8995L104.45 15.4674C104.414 15.4155 104.413 15.3455 104.45 15.2919C104.534 15.1713 104.637 15.0671 104.751 14.9783C104.852 14.9 104.967 14.8332 105.097 14.7809C105.164 14.7523 105.238 14.7756 105.28 14.8352L108.457 19.4209C108.501 19.4863 108.491 19.5725 108.431 19.6213C108.404 19.6461 108.392 19.6595 108.376 19.6681C108.247 19.7712 108.101 19.8484 107.934 19.9035ZM107.749 19.6421C107.891 19.608 108.015 19.5509 108.127 19.4755L105.104 15.1108C105.044 15.1432 104.986 15.1785 104.935 15.2177C104.872 15.2673 104.813 15.3218 104.761 15.384L107.749 19.6421Z" fill="#263238"/>
<path d="M110.552 25.1435C110.158 25.6189 109.716 26.0366 109.23 26.1491C108.434 26.3355 106.34 22.8139 106.34 22.8139C106.34 22.8139 104.863 25.1741 103.04 25.5432C103.04 25.5432 105.162 27.7271 105.581 28.5244C105.922 29.169 105.448 29.8273 104.772 30.3382C105.493 31.2948 107.497 33.367 110.345 31.5856C112.834 30.0314 111.573 26.921 110.552 25.1435Z" fill="#FEDEA5"/>
<path d="M109.317 32.2471C106.957 33.0269 105.304 31.3049 104.646 30.4329C104.623 30.3993 104.613 30.3609 104.616 30.3216C104.622 30.2813 104.642 30.2459 104.676 30.222C105.109 29.8935 105.785 29.2484 105.443 28.598C105.039 27.8304 102.949 25.6717 102.926 25.6505C102.887 25.612 102.874 25.5525 102.889 25.4998C102.906 25.4461 102.947 25.407 103.004 25.3947C104.742 25.0406 106.19 22.757 106.205 22.736C106.232 22.692 106.284 22.6653 106.334 22.6645C106.386 22.6666 106.436 22.6917 106.464 22.7368C107.466 24.4183 108.761 26.0989 109.191 26.0015C109.566 25.9126 109.963 25.6089 110.43 25.0455C110.462 25.0063 110.51 24.9873 110.559 24.9903C110.607 24.9933 110.652 25.0232 110.676 25.0664C111.699 26.8497 113.028 30.0811 110.416 31.7145C110.037 31.9579 109.67 32.1303 109.317 32.2471ZM104.982 30.3669C105.751 31.3361 107.638 33.0991 110.261 31.4589C112.573 30.0144 111.477 27.1242 110.527 25.4064C110.21 25.7669 109.769 26.1808 109.263 26.2971C108.478 26.4797 106.874 23.9878 106.331 23.097C105.945 23.6558 104.78 25.1942 103.326 25.6268C103.853 26.1809 105.356 27.7768 105.711 28.455C106.028 29.0564 105.766 29.7307 104.982 30.3669Z" fill="#FEDEA5"/>
<path d="M107.668 24.7993C107.339 24.3619 107.023 23.8977 106.782 23.5267C106.616 23.3229 106.452 23.1056 106.29 22.8874C106.037 23.2683 104.681 25.2117 103.034 25.5449C103.034 25.5449 103.751 26.2857 104.434 27.0599C105.179 27.0374 106.184 26.8776 106.806 26.2409C107.199 25.8393 107.474 25.3108 107.668 24.7993Z" fill="#263238"/>
<path d="M105.843 26.9834C105.366 27.1411 104.861 27.196 104.442 27.21C104.398 27.2118 104.353 27.1915 104.323 27.1598C103.65 26.3952 102.934 25.6573 102.928 25.6496C102.89 25.6111 102.877 25.5516 102.891 25.4989C102.909 25.4453 102.95 25.4061 103.006 25.3938C104.59 25.0747 105.914 23.1772 106.166 22.8002C106.193 22.759 106.239 22.7343 106.29 22.7335C106.341 22.7327 106.387 22.7558 106.415 22.7943C106.584 23.0259 106.748 23.2403 106.902 23.4259C107.213 23.9045 107.516 24.3409 107.789 24.7014C107.821 24.7418 107.827 24.7974 107.811 24.8473C107.573 25.4756 107.273 25.9772 106.921 26.3395C106.619 26.6502 106.239 26.8523 105.843 26.9834ZM104.504 26.9052C105.208 26.8768 106.133 26.7148 106.7 26.1345C107.009 25.8152 107.278 25.3749 107.494 24.8242C107.164 24.3839 106.856 23.9235 106.653 23.6102C106.542 23.4775 106.42 23.3198 106.294 23.1506C105.88 23.7382 104.738 25.2114 103.324 25.6307C103.575 25.8895 104.046 26.3888 104.504 26.9052Z" fill="#263238"/>
<path d="M96.7373 20.1403C96.7373 20.1403 99.1147 24.0349 100.187 24.9264C101.261 25.8208 104.227 26.3194 105.466 26.0664C106.706 25.8133 107.059 24.0575 107.366 22.6305C107.672 21.2035 107.556 20.1492 106.766 18.6947C105.973 17.2411 104.249 15.0825 103.106 13.9779C102.366 13.261 99.9308 13.0787 98.128 14.2208C96.3251 15.363 95.6433 18.0067 96.7373 20.1403Z" fill="#FEDEA5"/>
<path d="M105.676 26.1696C105.619 26.1886 105.56 26.2048 105.497 26.2161C104.156 26.4899 101.182 25.949 100.092 25.044C99.0112 24.1457 96.7083 20.3799 96.611 20.2204C96.61 20.2175 96.6062 20.2156 96.6043 20.2098C95.494 18.0465 96.1425 15.3019 98.0479 14.0939C99.938 12.8974 102.444 13.1299 103.212 13.8727C104.331 14.9533 106.081 17.1225 106.9 18.6279C107.677 20.0517 107.841 21.1475 107.515 22.6674L107.497 22.747C107.206 24.105 106.846 25.7831 105.676 26.1696ZM96.8688 20.0649C96.9652 20.2215 99.2576 23.9557 100.282 24.8087C101.29 25.6482 104.167 26.1763 105.433 25.9176C106.551 25.692 106.91 24.0206 107.2 22.6789L107.218 22.5993C107.533 21.1407 107.38 20.1371 106.634 18.7671C105.829 17.2857 104.104 15.153 103.002 14.0859C102.319 13.4268 99.9527 13.2408 98.2112 14.3467C96.4323 15.4745 95.832 18.0371 96.8688 20.0649Z" fill="#263238"/>
<path d="M101.994 21.2142C101.986 21.2171 101.977 21.2199 101.967 21.2199C101.885 21.2311 101.81 21.1762 101.795 21.0947C101.794 21.0793 101.739 20.7109 101.997 20.4019C102.21 20.1494 102.561 20.0173 103.04 20.0092C103.122 20.0076 103.192 20.074 103.195 20.1593C103.197 20.2418 103.128 20.3126 103.045 20.3142C102.658 20.3206 102.384 20.4147 102.23 20.5964C102.06 20.7963 102.092 21.0477 102.093 21.0506C102.107 21.1225 102.063 21.1914 101.994 21.2142Z" fill="#263238"/>
<path d="M102.976 22.7454C102.292 22.9714 101.694 22.8592 101.679 22.8544C101.597 22.8369 101.545 22.7581 101.56 22.6766C101.577 22.5942 101.656 22.5426 101.737 22.5573C101.826 22.5758 103.937 22.9643 104.532 20.3653C104.549 20.2829 104.632 20.2333 104.714 20.2508C104.796 20.2683 104.846 20.351 104.829 20.4334C104.494 21.9083 103.688 22.5099 102.976 22.7454Z" fill="#263238"/>
<path d="M99.8387 21.789C99.514 21.8964 99.2709 21.8553 99.2508 21.8524C99.0881 21.8231 98.9783 21.6645 99.0064 21.4987C99.0354 21.3357 99.1907 21.2269 99.3524 21.2533C99.3897 21.2601 100.06 21.3294 100.574 20.2138C100.645 20.0625 100.823 19.994 100.974 20.0655C101.126 20.1369 101.194 20.3155 101.123 20.4668C100.731 21.3249 100.227 21.6608 99.8387 21.789Z" fill="#263238"/>
<path d="M103.566 18.9472C103.27 19.0451 102.973 19.0825 102.743 19.0817C102.578 19.0822 102.44 18.9455 102.442 18.7758C102.441 18.6099 102.577 18.4722 102.744 18.4747C102.798 18.4758 104.088 18.4617 104.126 17.5067C104.131 17.3388 104.273 17.2089 104.44 17.2142C104.608 17.2195 104.738 17.3619 104.733 17.5297C104.702 18.3419 104.138 18.7582 103.566 18.9472Z" fill="#263238"/>
<path d="M98.4191 20.5232C98.3443 20.5479 98.2621 20.5112 98.2316 20.4382C98.2173 20.4046 97.8809 19.5893 98.245 18.8971C98.4669 18.4787 98.8887 18.2019 99.5045 18.0783C99.5849 18.0613 99.6662 18.1143 99.6842 18.1978C99.7013 18.2784 99.6514 18.3588 99.5652 18.3777C99.0423 18.4834 98.6886 18.7057 98.5128 19.0418C98.215 19.6066 98.5066 20.3153 98.5094 20.324C98.5418 20.4027 98.5072 20.4909 98.4286 20.5232C98.4277 20.5203 98.4219 20.5222 98.4191 20.5232Z" fill="#263238"/>
<path d="M101.325 17.0675C101.291 17.0789 101.253 17.0788 101.215 17.0624C101.14 17.0266 101.104 16.9393 101.139 16.8607C101.145 16.8492 101.748 15.5603 103.368 15.9386C103.451 15.9561 103.5 16.0388 103.483 16.1212C103.466 16.2036 103.383 16.2532 103.301 16.2357C101.919 15.9128 101.419 16.9758 101.414 16.9872C101.395 17.0284 101.363 17.0552 101.325 17.0675Z" fill="#263238"/>
<path d="M94.9358 22.9228C94.9358 22.9228 95.4466 25.1724 95.8421 25.6647C96.2375 26.157 98.829 27.6422 99.3424 28.0188C99.8557 28.3955 99.9476 28.4418 99.688 30.0099C99.4285 31.5781 96.4639 42.1485 96.9719 44.3991C97.4827 46.6487 98.2736 48.5693 100.448 47.3842C102.625 46.1982 102.026 39.9204 101.917 36.292C101.808 32.6637 101.443 28.0275 101.14 27.1116C100.838 26.1986 97.1368 24.8949 96.7322 24.7315C96.3304 24.5672 95.7946 23.4185 95.5861 22.7877C95.3786 22.1503 95.028 22.2661 94.9358 22.9228Z" fill="#FEDEA5"/>
<path d="M99.9349 47.773C99.4348 47.9383 98.9868 47.933 98.5966 47.7553C97.5989 47.3023 97.1412 45.821 96.827 44.4265C96.4406 42.7173 97.9909 36.4128 98.917 32.6468C99.2276 31.3781 99.4765 30.3757 99.5404 29.9808C99.7825 28.5239 99.7242 28.4824 99.2729 28.1492C99.0923 28.0172 98.6993 27.7733 98.2422 27.4899C97.2477 26.8729 96.0066 26.1074 95.7248 25.7565C95.3189 25.2517 94.8403 23.1863 94.7891 22.9541C94.7862 22.9358 94.7834 22.9176 94.7863 22.8975C94.8464 22.4814 95.0096 22.2326 95.2318 22.2103C95.3524 22.1992 95.5773 22.2527 95.7353 22.7308C95.9866 23.4911 96.5027 24.4643 96.7935 24.5822C96.8346 24.6006 96.914 24.6286 97.0231 24.6693C99.7332 25.6936 101.089 26.4498 101.289 27.0547C101.608 28.0195 101.966 32.719 102.074 36.2773C102.089 36.7386 102.109 37.2403 102.133 37.7688C102.292 41.4222 102.508 46.4243 100.525 47.5045C100.319 47.6237 100.122 47.7113 99.9349 47.773ZM95.0859 22.9166C95.2331 23.5549 95.6531 25.1923 95.9559 25.5683C96.2052 25.8789 97.5238 26.6954 98.3968 27.2343C98.8778 27.5322 99.2545 27.7655 99.4275 27.8936C100.024 28.329 100.091 28.4922 99.8342 30.0307C99.7674 30.4361 99.5176 31.4452 99.2059 32.7206C98.2875 36.4617 96.7479 42.7211 97.1181 44.3623C97.4011 45.6042 97.8348 47.0805 98.7187 47.4785C99.172 47.6833 99.714 47.6064 100.376 47.247C102.194 46.2564 101.979 41.3627 101.825 37.7908C101.802 37.2585 101.779 36.7549 101.767 36.2926C101.651 32.4398 101.276 27.9983 100.997 27.1544C100.885 26.8146 100.084 26.156 96.9115 24.9585C96.8015 24.915 96.7183 24.885 96.6742 24.8676C96.1845 24.6685 95.6316 23.4104 95.4393 22.8286C95.3546 22.5723 95.2685 22.5144 95.2494 22.5144C95.2312 22.5172 95.1372 22.5994 95.0859 22.9166Z" fill="#263238"/>
<path d="M101.918 36.2879C101.908 35.9273 101.894 35.558 101.878 35.183L98.4974 34.9937C97.6281 38.6132 96.6624 43.0312 96.9729 44.395C97.4837 46.6446 98.2747 48.5652 100.449 47.3801C102.626 46.1941 102.028 39.9191 101.918 36.2879Z" fill="#F26F1F"/>
<path d="M99.9351 47.7734C99.4351 47.9386 98.9871 47.9333 98.5968 47.7556C97.5992 47.3026 97.1415 45.8214 96.8272 44.4269C96.5045 42.9969 97.5433 38.3374 98.3548 34.9576C98.3731 34.8876 98.4363 34.8379 98.511 34.842L101.891 35.0284C101.968 35.0315 102.031 35.0941 102.034 35.1727C102.05 35.5477 102.064 35.9199 102.075 36.2805C102.091 36.7419 102.11 37.2435 102.135 37.772C102.293 41.4255 102.509 46.4275 100.526 47.5077C100.319 47.624 100.122 47.7116 99.9351 47.7734ZM98.6167 35.1521C97.8177 38.4927 96.8146 43.0094 97.1213 44.3617C97.4042 45.6036 97.838 47.0799 98.7218 47.4779C99.1752 47.6827 99.7172 47.6058 100.379 47.2464C102.197 46.2558 101.982 41.3621 101.828 37.7902C101.805 37.2579 101.782 36.7543 101.77 36.292C101.761 35.9755 101.75 35.6532 101.734 35.3262L98.6167 35.1521Z" fill="#263238"/>
<path d="M97.8853 37.6464C97.8805 37.6704 97.8756 37.6943 97.8708 37.7183C97.8583 37.7767 97.8448 37.8323 97.8322 37.8908C97.8042 38.0182 97.7791 38.1447 97.7501 38.2693C98.5764 38.1943 100.013 38.1251 101.997 38.2331C101.989 38.025 101.979 37.8236 101.971 37.625C100.124 37.5232 98.748 37.5753 97.8853 37.6464Z" fill="#263238"/>
<path d="M101.629 45.5973C101.693 45.3779 101.749 45.1421 101.799 44.8958C99.8912 45.5677 98.3555 45.6855 97.3082 45.6419C97.3806 45.8608 97.4587 46.0682 97.5426 46.2641C98.5649 46.2808 99.9485 46.1462 101.629 45.5973Z" fill="#263238"/>
<path d="M97.1389 41.4746C97.1292 41.5321 97.1196 41.5896 97.1127 41.6462C97.104 41.7066 97.0934 41.7708 97.0846 41.8312C97.0701 41.9318 97.0594 42.0248 97.0468 42.1217C98.2161 41.8598 100.035 41.6038 102.071 41.8539C102.075 41.6516 102.077 41.4464 102.076 41.2421C100.101 41.0037 98.3427 41.2205 97.1389 41.4746Z" fill="#263238"/>
<path d="M106.333 13.6576C106.333 13.6576 108.537 14.3284 108.998 14.7576C109.459 15.1897 110.751 17.8839 111.089 18.424C111.427 18.964 111.468 19.0591 113.049 18.9136C114.629 18.7653 125.368 16.5576 127.57 17.2293C129.774 17.9 131.63 18.8267 130.293 20.9169C128.957 23.0071 122.749 21.9629 119.143 21.5926C115.536 21.2224 110.946 20.5286 110.057 20.1613C109.167 19.794 108.134 16.0016 108 15.5887C107.867 15.1759 106.761 14.5576 106.145 14.3044C105.534 14.0492 105.676 13.7054 106.333 13.6576Z" fill="#FEDEA5"/>
<path d="M129.021 21.9592C126.958 22.6412 123.391 22.2288 120.614 21.9072C120.087 21.848 119.59 21.7889 119.131 21.7423C115.595 21.3809 110.94 20.686 110.003 20.2993C109.416 20.0558 108.756 18.6477 107.932 15.8658C107.899 15.7554 107.875 15.6738 107.861 15.6306C107.765 15.3301 106.831 14.744 106.093 14.4386C105.628 14.2472 105.59 14.0169 105.609 13.899C105.643 13.6766 105.905 13.5327 106.322 13.5033C106.342 13.5034 106.361 13.5035 106.379 13.5102C106.609 13.5781 108.629 14.2041 109.103 14.6449C109.435 14.9538 110.107 16.2459 110.651 17.2834C110.9 17.757 111.113 18.1691 111.221 18.3411C111.531 18.836 111.567 18.8975 113.036 18.7603C113.434 18.7213 114.451 18.5481 115.736 18.3278C119.552 17.6707 125.94 16.572 127.616 17.0819C128.978 17.4977 130.422 18.0586 130.804 19.0888C131.009 19.6409 130.88 20.284 130.424 20.997C130.138 21.443 129.65 21.7512 129.021 21.9592ZM106.058 13.8592C105.946 13.8963 105.909 13.9403 105.906 13.9508C105.905 13.9671 105.958 14.0584 106.205 14.1618C106.77 14.3938 107.983 15.0374 108.146 15.5395C108.16 15.5827 108.185 15.6671 108.219 15.7804C109.187 19.0356 109.786 19.8824 110.115 20.0197C110.934 20.3589 115.329 21.0501 119.159 21.4394C119.617 21.4859 120.118 21.5441 120.645 21.6062C124.191 22.0156 129.049 22.576 130.166 20.8332C130.574 20.1967 130.687 19.661 130.517 19.1934C130.18 18.2822 128.743 17.7415 127.527 17.3731C125.922 16.8846 119.579 17.9748 115.787 18.6272C114.494 18.8503 113.474 19.0245 113.063 19.0644C111.511 19.2099 111.354 19.1308 110.975 18.5244C110.848 18.3236 110.644 17.9278 110.38 17.4273C109.904 16.5176 109.188 15.141 108.894 14.8705C108.54 14.5405 106.94 14.0021 106.316 13.8121C106.204 13.8204 106.121 13.8383 106.058 13.8592Z" fill="#263238"/>
<path d="M119.145 21.5914C118.789 21.5557 118.418 21.5152 118.047 21.4718L118.102 18.0799C121.768 17.4722 126.239 16.822 127.572 17.2281C129.776 17.8988 131.632 18.8255 130.295 20.9157C128.959 23.0059 122.751 21.9617 119.145 21.5914Z" fill="#F26F1F"/>
<path d="M129.021 21.9596C126.958 22.6416 123.391 22.2292 120.614 21.9076C120.087 21.8484 119.59 21.7893 119.131 21.7427C118.771 21.7051 118.405 21.6665 118.031 21.6241C117.954 21.6143 117.894 21.5479 117.897 21.4702L117.952 18.0783C117.953 18.0045 118.003 17.9432 118.079 17.931C121.502 17.3618 126.216 16.6568 127.619 17.0813C128.98 17.4971 130.425 18.058 130.807 19.0883C131.012 19.6404 130.883 20.2835 130.427 20.9965C130.138 21.4434 129.647 21.7526 129.021 21.9596ZM119.16 21.4426C119.618 21.4892 120.119 21.5474 120.646 21.6095C124.192 22.0189 129.05 22.5793 130.167 20.8365C130.575 20.2 130.688 19.6643 130.518 19.1967C130.181 18.2855 128.744 17.7448 127.528 17.3764C126.203 16.9742 121.634 17.6538 118.251 18.2126L118.201 21.3408C118.525 21.3744 118.846 21.409 119.16 21.4426Z" fill="#263238"/>
<path d="M124.656 22.14C124.86 22.1522 125.06 22.1596 125.261 22.1669L125.535 17.1243C125.403 17.1296 125.269 17.1388 125.129 17.1498C125.102 17.1526 125.07 17.1535 125.042 17.1563C125.005 17.159 124.965 17.1627 124.927 17.1655L124.656 22.14Z" fill="#263238"/>
<path d="M121.916 17.4963C121.864 17.5038 121.81 17.5123 121.757 17.5169C121.617 17.5376 121.477 17.5553 121.337 17.576L121.058 21.8054C121.213 21.8212 121.369 21.8399 121.525 21.8587C121.568 21.8636 121.614 21.8676 121.661 21.8744L121.95 17.4917C121.938 17.4954 121.929 17.4954 121.916 17.4963Z" fill="#263238"/>
<path d="M128.697 17.6162C128.6 18.6229 128.413 20.4511 128.194 22.0156C128.416 21.9741 128.63 21.9258 128.827 21.867C129.022 20.4416 129.185 18.8607 129.28 17.8741C129.096 17.7815 128.899 17.6964 128.697 17.6162Z" fill="#263238"/>
<path d="M164.673 61.7655C165.343 61.8636 166.013 62.281 166.013 62.281C166.013 62.281 165.986 63.0664 164.835 64.7822C166.203 65.4675 167.472 66.2235 167.847 66.0453C168.583 65.6967 169.547 61.5444 169.899 60.3611C170.251 59.1807 171.216 58.1845 170.87 56.4907C170.523 54.794 169.532 55.0162 169.308 55.6235C169.085 56.2308 167.257 58.5793 166.14 59.3765C165.023 60.1708 164.164 60.873 164.164 60.873C164.164 60.873 164.003 61.6675 164.673 61.7655Z" fill="#F37630"/>
<path d="M167.865 66.1985C167.503 66.3182 166.785 65.9611 165.582 65.3396C165.317 65.2035 165.04 65.0587 164.761 64.9178C164.722 64.8985 164.692 64.8639 164.681 64.8226C164.671 64.7814 164.678 64.7344 164.701 64.698C165.596 63.364 165.797 62.6042 165.842 62.3626C165.646 62.2517 165.142 61.9902 164.646 61.9176C164.425 61.8853 164.258 61.7869 164.144 61.6235C163.92 61.3044 164.005 60.8578 164.012 60.8396C164.02 60.8051 164.038 60.7735 164.066 60.7515C164.074 60.7458 164.939 60.0379 166.049 59.2493C167.157 58.4617 168.95 56.1437 169.165 55.568C169.293 55.2223 169.618 54.9998 169.957 55.0249C170.193 55.0429 170.764 55.2184 171.018 56.4602C171.272 57.6991 170.862 58.5628 170.464 59.394C170.301 59.7387 170.146 60.0614 170.043 60.4053C169.977 60.6286 169.886 60.962 169.78 61.3549C169.142 63.7351 168.516 65.8937 167.91 66.1805C167.895 66.1852 167.879 66.1938 167.865 66.1985ZM165.05 64.7231C165.28 64.8389 165.504 64.9567 165.723 65.0696C166.578 65.5154 167.546 66.0162 167.778 65.9077C168.31 65.6552 169.104 62.6963 169.486 61.2763C169.594 60.8796 169.684 60.5432 169.75 60.32C169.859 59.955 170.027 59.6055 170.187 59.2684C170.564 58.4794 170.951 57.6645 170.718 56.5244C170.569 55.8037 170.275 55.3578 169.931 55.3308C169.728 55.3148 169.527 55.458 169.446 55.6764C169.217 56.2952 167.394 58.6677 166.224 59.4983C165.266 60.179 164.495 60.7951 164.304 60.9508C164.293 61.0534 164.282 61.2902 164.396 61.4507C164.462 61.544 164.559 61.598 164.693 61.6176C165.387 61.7205 166.063 62.136 166.092 62.1553C166.14 62.1842 166.166 62.2361 166.161 62.2888C166.159 62.3186 166.121 63.0914 165.05 64.7231Z" fill="#263238"/>
<path d="M170.175 55.2478C170.58 57.3023 170.168 58.1478 168.693 61.3827C167.542 63.907 167.247 65.3302 167.177 66.0051C167.481 66.0867 167.714 66.1056 167.844 66.0466C168.58 65.698 169.544 61.5456 169.896 60.3623C170.248 59.1819 171.213 58.1857 170.867 56.4919C170.718 55.7616 170.452 55.3896 170.175 55.2478Z" fill="white"/>
<path d="M167.856 66.2016C167.698 66.2538 167.467 66.2377 167.138 66.1513C167.066 66.1338 167.017 66.0636 167.028 65.9898C167.109 65.2123 167.439 63.771 168.557 61.3185L168.642 61.1337C170.042 58.0674 170.417 57.2438 170.028 55.2766C170.016 55.22 170.041 55.1606 170.087 55.1262C170.133 55.0918 170.195 55.0872 170.248 55.1143C170.499 55.2455 170.838 55.587 171.018 56.4603C171.272 57.6993 170.862 58.563 170.464 59.3941C170.301 59.7389 170.146 60.0616 170.043 60.4055C169.977 60.6288 169.886 60.9622 169.78 61.3551C169.142 63.7352 168.517 65.8939 167.91 66.1806C167.894 66.1892 167.876 66.1949 167.856 66.2016ZM167.345 65.8882C167.637 65.9515 167.746 65.925 167.778 65.9078C168.31 65.6554 169.105 62.6965 169.486 61.2764C169.594 60.8798 169.684 60.5434 169.75 60.3202C169.859 59.9551 170.028 59.6056 170.187 59.2686C170.564 58.4795 170.951 57.6647 170.718 56.5246C170.634 56.1177 170.517 55.8497 170.403 55.6767C170.661 57.4412 170.204 58.4419 168.915 61.2641L168.829 61.4489C167.748 63.819 167.433 65.2105 167.345 65.8882Z" fill="#263238"/>
<path d="M121.292 52.4224C121.249 52.4366 121.197 52.4317 121.157 52.3999C121.091 52.3517 121.074 52.2548 121.122 52.1878C121.122 52.1878 121.361 51.8568 121.755 51.3143C121.803 51.2473 121.9 51.2313 121.968 51.2824C122.034 51.3305 122.051 51.4274 122 51.4954C121.604 52.035 121.37 52.368 121.37 52.368C121.347 52.3948 121.321 52.4129 121.292 52.4224Z" fill="white"/>
<path d="M120.385 53.2946C120.385 53.2946 127.457 42.8649 133.945 37.7367C140.434 32.6114 143.525 33.6121 143.905 36.3619C144.281 39.1126 143.691 48.5725 142.628 54.0355C141.565 59.4986 139.665 68.538 139.665 68.538C139.665 68.538 145.816 73 146.421 73.5477C147.025 74.0924 144.282 75.1078 142.91 74.8138C141.819 74.5801 141.872 74.6839 139.465 74.0355C135.385 72.9367 134.907 72.1363 135.129 71.2097C135.847 68.2409 137.014 65.5709 136.775 62.3564C136.337 56.5174 136.522 48.7057 137.054 49.3797C137.054 49.3797 134.842 53.9443 130.338 57.3497C125.832 60.7561 122.376 61.4028 119.13 59.1406" fill="#73B4EA"/>
<path d="M145.301 74.691C144.494 74.9579 143.507 75.0985 142.874 74.9661C142.555 74.8989 142.335 74.8598 142.122 74.8217C141.611 74.7318 141.126 74.6459 139.422 74.1868C135.363 73.0939 134.72 72.2555 134.979 71.1794C135.162 70.4194 135.377 69.6711 135.588 68.9497C136.211 66.7852 136.799 64.7444 136.621 62.375C136.351 58.7394 136.279 53.1596 136.551 50.5874C135.592 52.1724 133.55 55.1158 130.425 57.4775C125.794 60.9793 122.281 61.53 119.036 59.2706C118.966 59.2234 118.951 59.1294 118.998 59.0595C119.045 58.9897 119.141 58.9737 119.208 59.0218C122.327 61.1954 125.731 60.6454 130.24 57.2352C133.831 54.5212 135.971 51.0314 136.662 49.7869C136.73 49.4515 136.812 49.2456 136.911 49.2094C136.946 49.198 137.062 49.1629 137.166 49.2946C137.203 49.3398 137.208 49.4022 137.184 49.4549C137.18 49.4625 137.089 49.6492 136.91 49.9671C136.643 51.6685 136.541 57.3283 136.918 62.3568C137.1 64.7789 136.503 66.8485 135.875 69.0369C135.666 69.7574 135.454 70.5019 135.272 71.2551C135.1 71.97 135.283 72.7627 139.499 73.8964C141.189 74.3536 141.666 74.4357 142.171 74.5275C142.387 74.5646 142.611 74.6056 142.937 74.6738C144.078 74.9162 146.105 74.2304 146.339 73.7698C146.36 73.7277 146.359 73.7056 146.318 73.6681C145.727 73.1349 139.637 68.7133 139.575 68.67C139.526 68.6353 139.503 68.5758 139.515 68.5173C139.534 68.4282 141.426 59.4165 142.478 54.0148C143.553 48.4904 144.126 39.1034 143.754 36.3891C143.622 35.4201 143.151 34.7453 142.397 34.4417C141.403 34.0386 138.995 33.9494 134.038 37.8626C127.643 42.9152 120.581 53.2807 120.51 53.3841C120.463 53.4539 120.37 53.4718 120.301 53.4246C120.231 53.3774 120.213 53.2843 120.26 53.2145C120.331 53.1111 127.42 42.7045 133.851 37.6241C137.612 34.6527 140.686 33.4225 142.507 34.1592C143.368 34.5072 143.902 35.2637 144.053 36.3479C144.428 39.0833 143.853 48.5221 142.773 54.0704C141.782 59.1712 140.037 67.4919 139.831 68.48C140.586 69.0262 145.945 72.9255 146.52 73.4414C146.662 73.5704 146.695 73.7383 146.61 73.9069C146.46 74.1931 145.936 74.4811 145.301 74.691Z" fill="#73B4EA"/>
<path d="M122.881 50.2549C122.835 50.2701 122.784 50.2613 122.743 50.2334C122.675 50.1823 122.663 50.0874 122.711 50.0204C124.195 48.0381 126.303 45.3222 127.934 43.6491C127.99 43.5889 128.089 43.5882 128.146 43.646C128.207 43.7056 128.207 43.8015 128.15 43.8589C126.531 45.5214 124.432 48.2249 122.953 50.2024C122.935 50.2273 122.91 50.2454 122.881 50.2549Z" fill="white"/>
<path d="M134.503 53.168C134.463 53.1813 134.417 53.1773 134.376 53.1522C134.305 53.1089 134.283 53.0138 134.326 52.9421L136.103 50.0515C136.075 49.4472 135.881 43.3616 138.556 39.2761C138.603 39.2062 138.695 39.1854 138.765 39.2326C138.835 39.2799 138.856 39.372 138.809 39.4419C136.061 43.6374 136.403 50.016 136.408 50.0784C136.409 50.11 136.403 50.1407 136.386 50.1656L134.587 53.0954C134.565 53.1346 134.537 53.1566 134.503 53.168Z" fill="white"/>
<path d="M143.569 47.98C143.552 47.9857 143.531 47.9894 143.511 47.9865C143.426 47.9824 143.364 47.9103 143.368 47.8259L143.459 46.3358C143.463 46.2515 143.535 46.1894 143.619 46.1935C143.704 46.1976 143.766 46.2697 143.762 46.3541L143.671 47.8441C143.67 47.9084 143.627 47.961 143.569 47.98Z" fill="white"/>
<path d="M143.74 45.1789C143.723 45.1846 143.702 45.1884 143.682 45.1854C143.597 45.1813 143.535 45.1092 143.539 45.0248L143.866 39.6294C143.87 39.5451 143.942 39.4829 144.026 39.4871C144.111 39.4912 144.173 39.5633 144.169 39.6477L143.842 45.0431C143.838 45.1083 143.797 45.1599 143.74 45.1789Z" fill="white"/>
<path d="M142.905 74.8186C144.276 75.1098 147.023 74.0963 146.417 73.5525C145.813 73.0077 139.661 68.5428 139.661 68.5428C139.661 68.5428 140.164 66.1498 140.798 63.081C138.868 63.4536 137.568 63.0111 136.777 62.5185C136.968 65.6628 135.833 68.2936 135.125 71.2145C134.902 72.1411 135.38 72.9415 139.46 74.0403C141.867 74.6887 141.814 74.5849 142.905 74.8186Z" fill="#FEDEA5"/>
<path d="M145.301 74.6911C144.494 74.958 143.507 75.0986 142.874 74.9662C142.555 74.899 142.335 74.8599 142.122 74.8218C141.611 74.7319 141.126 74.646 139.422 74.1869C135.363 73.094 134.72 72.2556 134.979 71.1795C135.163 70.4224 135.376 69.6779 135.584 68.9574C136.194 66.839 136.769 64.8374 136.628 62.5295C136.625 62.4729 136.652 62.4193 136.703 62.3898C136.751 62.3611 136.811 62.3604 136.86 62.3922C137.586 62.8453 138.854 63.3049 140.771 62.9332C140.822 62.9228 140.872 62.9383 140.906 62.9749C140.941 63.0114 140.958 63.0633 140.945 63.1121C140.387 65.8205 139.928 68.0009 139.83 68.4772C140.585 69.0234 145.944 72.9228 146.519 73.4387C146.661 73.5676 146.694 73.7356 146.609 73.9041C146.46 74.1932 145.936 74.4812 145.301 74.6911ZM136.943 62.7895C137.027 65.03 136.467 66.9818 135.876 69.0399C135.669 69.7566 135.456 70.501 135.274 71.2514C135.102 71.9663 135.285 72.759 139.5 73.8927C141.191 74.3499 141.668 74.4319 142.173 74.5237C142.389 74.5609 142.613 74.6019 142.939 74.67C144.08 74.9125 146.107 74.2266 146.341 73.7661C146.362 73.7239 146.361 73.7019 146.32 73.6643C145.729 73.1311 139.639 68.7096 139.577 68.6663C139.528 68.6316 139.505 68.572 139.517 68.5136C139.517 68.5136 139.997 66.2336 140.606 63.2722C138.906 63.5496 137.706 63.1986 136.943 62.7895Z" fill="#263238"/>
<path d="M139.661 68.5429C139.661 68.5429 139.184 68.3812 138.958 69.3088C138.732 70.2364 138.698 71.0975 138.698 71.0975L135.641 69.3029C135.46 69.9315 135.28 70.5658 135.125 71.2145C134.902 72.1412 135.38 72.9416 139.46 74.0404C141.868 74.6887 141.814 74.585 142.905 74.8187C144.276 75.1098 147.024 74.0963 146.417 73.5525C145.812 73.0049 139.661 68.5429 139.661 68.5429Z" fill="#F37630"/>
<path d="M145.301 74.6909C144.494 74.9578 143.508 75.0985 142.874 74.966C142.555 74.8988 142.335 74.8598 142.122 74.8217C141.611 74.7318 141.127 74.6459 139.422 74.1867C135.364 73.0938 134.72 72.2555 134.979 71.1793C135.143 70.5056 135.332 69.8359 135.496 69.261C135.51 69.215 135.542 69.1787 135.584 69.1615C135.629 69.1435 135.675 69.1475 135.718 69.1716L138.565 70.8408C138.592 70.5158 138.656 69.9099 138.811 69.2707C138.913 68.8539 139.08 68.5782 139.309 68.4514C139.514 68.3389 139.691 68.3922 139.709 68.399C139.723 68.4038 139.739 68.4115 139.751 68.4202C140.003 68.6023 145.916 72.8938 146.52 73.4385C146.661 73.5675 146.694 73.7354 146.61 73.9039C146.46 74.1931 145.936 74.481 145.301 74.6909ZM135.732 69.5312C135.582 70.0601 135.414 70.6523 135.27 71.2493C135.099 71.9642 135.281 72.7569 139.497 73.8906C141.187 74.3478 141.664 74.4299 142.169 74.5217C142.386 74.5588 142.61 74.5998 142.935 74.668C144.077 74.9104 146.104 74.2245 146.337 73.764C146.358 73.7219 146.357 73.6998 146.316 73.6623C145.744 73.1454 140.039 69.0023 139.598 68.6815C139.572 68.6776 139.512 68.6813 139.445 68.7194C139.344 68.7785 139.201 68.9344 139.102 69.3407C138.883 70.2405 138.849 71.092 138.848 71.0987C138.846 71.1505 138.814 71.1993 138.769 71.227C138.723 71.2518 138.666 71.2516 138.619 71.2256L135.732 69.5312Z" fill="#F37630"/>
<path d="M139.462 74.0403C141.869 74.6886 141.816 74.5849 142.906 74.8186C144.141 75.0815 146.486 74.2873 146.505 73.7282C142.067 74.9396 137.301 72.6523 135.099 71.364C134.964 72.2267 135.602 72.9998 139.462 74.0403Z" fill="white"/>
<path d="M145.278 74.7049C144.493 74.9642 143.534 75.1088 142.874 74.9657C142.556 74.8985 142.336 74.8594 142.122 74.8213C141.611 74.7314 141.127 74.6455 139.423 74.1864C135.496 73.1265 134.8 72.312 134.947 71.34C134.956 71.2892 134.986 71.2471 135.031 71.2261C135.077 71.2042 135.129 71.2063 135.173 71.2333C137.536 72.6152 142.143 74.76 146.462 73.5818C146.509 73.5695 146.557 73.5793 146.595 73.6081C146.633 73.637 146.655 73.6841 146.652 73.733C146.647 73.8816 146.55 74.0319 146.365 74.1761C146.12 74.369 145.726 74.5567 145.278 74.7049ZM135.233 71.6161C135.261 72.2041 135.876 72.9177 139.501 73.8922C141.192 74.3494 141.668 74.4315 142.174 74.5232C142.39 74.5604 142.614 74.6014 142.939 74.6695C143.851 74.8633 145.468 74.4504 146.127 73.9768C141.95 74.9167 137.611 72.977 135.233 71.6161Z" fill="#263238"/>
</svg>
