<svg width="414" height="258" viewBox="0 0 414 258" fill="none" xmlns="http://www.w3.org/2000/svg">
<path d="M63.0835 224.997L-12.5 257.997H417.5L343.998 224.997H63.0835Z" fill="#8C96FF"/>
<path d="M176.98 163.637L162.7 186.837L190.09 219.367H217.71L243.46 186.287L227.52 163.637H176.98Z" fill="#3F4553"/>
<path d="M162.7 186.837C162.7 186.837 101.27 191.587 85.8599 207.677C70.4499 223.767 77.6999 241.237 92.7099 241.237C120.34 241.237 178.8 242.927 206.46 241.237L208.11 203.567L162.7 186.837Z" fill="#3F4553"/>
<path d="M241.87 186.037C241.87 186.037 306.2 191.587 321.61 207.677C337.02 223.767 328.14 234.427 314.76 241.237C295.93 250.827 228.06 249.237 192.86 237.587L199.37 203.567L241.87 186.037Z" fill="#3F4553"/>
<path d="M244.7 217.637L240.35 206.397L245.77 203.987C245.77 203.987 245.02 197.337 251.65 196.057C258.28 194.777 266.18 199.057 273.88 195.607C280.98 192.427 289.67 189.497 297.78 193.897C298.98 194.547 299.54 195.977 299.13 197.277L299.1 197.377C298.69 198.687 297.41 199.497 296.04 199.357C293.18 199.067 288.08 199.127 283.04 202.177C274.35 207.457 244.7 217.637 244.7 217.637Z" fill="#FEBBA0"/>
<path d="M295.31 218.277C295.31 218.277 252.38 210.647 161.95 209.467L153.22 221.307C153.22 221.307 175.72 234.167 196.84 238.817C217.96 243.467 290.87 258.107 323.43 235.557L295.31 218.277Z" fill="#3F4553"/>
<path d="M196.84 238.827C175.19 233.827 152.54 221.007 152.54 221.007L153.89 218.717" stroke="#6E758F" stroke-width="1.5925" stroke-miterlimit="10" stroke-linecap="round"/>
<path d="M161.95 209.467C161.95 209.467 261.3 207.197 287.81 222.577" stroke="#6E758F" stroke-width="1.5925" stroke-miterlimit="10" stroke-linecap="round"/>
<path d="M113.18 215.907C113.18 215.907 131.32 207.407 143.72 212.977" stroke="#6E758F" stroke-width="1.5925" stroke-miterlimit="10" stroke-linecap="round"/>
<path d="M155.31 219.347L161.94 209.247L155.31 205.657C155.31 205.657 152.99 199.847 146.49 198.047C139.98 196.257 135.35 199.147 127.94 195.107C121.11 191.377 112.67 187.787 104.25 191.537C103.01 192.087 102.33 193.467 102.64 194.797L102.66 194.897C102.97 196.237 104.18 197.137 105.55 197.107C108.42 197.037 113.51 197.497 118.29 200.937C126.54 206.877 155.31 219.347 155.31 219.347Z" fill="#FEBBA0"/>
<path d="M212.39 209.827L239.55 207.157" stroke="#6E758F" stroke-width="1.5925" stroke-miterlimit="10" stroke-linecap="round"/>
<path d="M177.85 198.057L193 209.027" stroke="#6E758F" stroke-width="1.5925" stroke-miterlimit="10" stroke-linecap="round"/>
<path d="M173.94 48.7668C174.58 55.0268 180.03 59.5868 186.11 58.9668C192.19 58.3468 196.6 52.7668 195.96 46.5168C195.32 40.2568 189.87 35.6968 183.79 36.3168C177.72 36.9268 173.31 42.5068 173.94 48.7668Z" fill="#3F4553"/>
<path d="M196.65 53.3168C196.65 53.3168 177.33 50.3968 174.29 32.1668C171.61 16.0568 182.42 3.14679 194.27 0.916788C194.28 0.916788 222.75 44.7968 196.65 53.3168Z" fill="#3F4553"/>
<path d="M197.09 2.64679C195.67 3.34679 194.32 4.26679 193.09 5.45679C182.08 16.0468 189.05 36.6068 198.91 45.8868C204.37 51.0168 212.35 53.4068 219.32 50.7868C229.51 46.9568 232.7 35.4168 230.63 25.1368C229.09 17.4768 224.84 10.2468 218.57 5.74679C212.3 1.25679 203.83 -0.643212 197.09 2.64679Z" fill="#FDBCA0"/>
<path d="M195.26 39.6868C193.33 41.5968 189.97 42.3768 187.39 41.4668C184.81 40.5568 182.69 38.1268 182.02 35.3068C181.42 32.7768 182.07 29.8968 183.93 28.3468C185.79 26.7968 189.14 26.8968 190.73 28.9068L195.26 39.6868Z" fill="#FDBCA0"/>
<path d="M192.44 32.9668L194.47 69.3068C194.74 76.0268 200.19 81.3668 206.91 81.4968C214.67 81.6568 220.76 74.8768 219.77 67.1768L215.67 33.4368L192.44 32.9668Z" fill="#FDBCA0"/>
<path d="M218.43 56.2168L217.92 51.2368C217.92 51.2368 207.92 54.3068 198.91 45.8768C198.91 45.8868 204.1 55.3568 218.43 56.2168Z" fill="#DF8370"/>
<path d="M188.47 27.4768C201.49 26.8068 213.37 18.0668 219.93 6.80679C219.93 6.80679 207.95 -4.56321 190.44 2.08679C175.93 7.58679 188.47 27.4768 188.47 27.4768Z" fill="#3F4553"/>
<path d="M189.9 35.8368C188.4 35.9868 187.09 35.1768 186.97 34.0268C186.88 33.1568 187.49 32.3468 188.43 31.9268" stroke="#444359" stroke-width="1.1144" stroke-miterlimit="10" stroke-linecap="round"/>
<path d="M221.18 32.9968C221.48 32.0868 222 31.3668 222.58 30.6868L222.86 31.5668C222.2 31.3168 221.84 30.9368 221.47 30.5668C221.12 30.1768 220.81 29.7868 220.53 29.3668C219.97 28.5368 219.5 27.6568 219.16 26.7268C219.86 27.4368 220.5 28.1668 221.17 28.8668C221.51 29.2068 221.83 29.5568 222.18 29.8568C222.51 30.1468 222.9 30.4468 223.17 30.5168L223.98 30.7068L223.45 31.3968C222.91 32.1068 222.31 32.7668 221.48 33.2468C221.38 33.3068 221.26 33.2668 221.2 33.1768C221.17 33.1068 221.17 33.0468 221.18 32.9968Z" fill="#444359"/>
<path d="M224.11 36.1768C223.71 36.9968 223.03 37.7068 222.15 38.1368C221.28 38.5868 220.2 38.6768 219.24 38.3968C218.26 38.1268 217.5 37.4868 216.85 36.8268C216.56 36.4668 216.27 36.0968 216.03 35.7168C215.82 35.3068 215.6 34.9068 215.44 34.4868C215.81 34.7668 216.13 35.0668 216.45 35.3668L217.44 36.1868C218.14 36.6468 218.8 37.1468 219.56 37.3268C220.29 37.5568 221.07 37.5468 221.84 37.3368C222.6 37.1168 223.36 36.6868 224.11 36.1768Z" fill="#444359"/>
<path d="M213.64 23.1068C214.03 24.2668 214.25 25.4668 214.17 26.7568C214.12 27.3868 213.97 28.0768 213.5 28.6868C213.02 29.3068 212.21 29.5768 211.5 29.5568C210.77 29.5468 210.05 29.2268 209.56 28.7768C209.05 28.3268 208.65 27.8068 208.35 27.2568C207.75 26.1468 207.37 24.9868 207.18 23.7668C207.15 23.5768 207.28 23.3968 207.47 23.3568C207.65 23.3268 207.81 23.4368 207.86 23.5968L207.87 23.6168C208.21 24.6968 208.66 25.7868 209.24 26.7268C209.82 27.6368 210.61 28.4768 211.54 28.4468C212 28.4668 212.43 28.3468 212.69 28.0168C212.98 27.6968 213.12 27.1768 213.2 26.6468C213.35 25.5768 213.25 24.3968 213.07 23.2668V23.2468C213.04 23.0868 213.16 22.9268 213.32 22.9068C213.45 22.8868 213.59 22.9768 213.64 23.1068Z" fill="#444359"/>
<path d="M228.16 20.8368C228.49 21.8168 228.67 22.8168 228.65 23.8868C228.64 24.4168 228.54 24.9968 228.2 25.5468C227.87 26.1268 227.13 26.4868 226.49 26.4568C225.82 26.4468 225.21 26.0968 224.82 25.6868C224.42 25.2668 224.11 24.8168 223.88 24.3368C223.43 23.3768 223.15 22.3968 223.01 21.3668C222.98 21.1768 223.12 20.9968 223.32 20.9668C223.49 20.9468 223.65 21.0468 223.7 21.2068L223.71 21.2268C224 22.1268 224.35 23.0468 224.8 23.8468C225.25 24.6268 225.86 25.3768 226.53 25.3368C226.87 25.3468 227.14 25.2468 227.32 24.9668C227.52 24.6868 227.62 24.2568 227.68 23.8068C227.78 22.9068 227.7 21.9168 227.59 20.9768V20.9568C227.57 20.7968 227.69 20.6468 227.85 20.6168C227.98 20.6168 228.12 20.7068 228.16 20.8368Z" fill="#444359"/>
<path d="M238.96 72.6068C238.87 66.5068 219.09 61.6268 219.09 61.6268C217.85 62.9968 215.72 65.3068 206.75 65.3068C198.17 65.3068 194.74 63.0868 193.4 61.6268H184.91C183.02 61.6268 181.29 62.7068 180.5 64.4268C163.49 101.637 173.05 143.197 176.97 163.627C177.33 165.507 212.83 164.237 228.84 165.507C232.3 165.797 239.3 94.7768 238.96 72.6068Z" fill="#FEE6C6"/>
<path d="M197.65 125.227C199.41 111.007 201.56 102.477 203.21 105.277C204.67 107.757 203.86 120.197 201.67 132.197C201.68 132.197 196.9 131.317 197.65 125.227Z" fill="#FEBBA0"/>
<path d="M209.27 125.227C207.51 111.007 205.36 102.477 203.71 105.277C202.25 107.757 203.06 120.197 205.25 132.197C205.24 132.197 210.02 131.317 209.27 125.227Z" fill="#FEBBA0"/>
<path d="M267.89 121.697H245.54L249.09 144.397L208.53 124.607C208.39 123.087 208.2 121.207 207.97 119.217C206.44 119.217 204.9 119.217 203.37 119.197C203.38 120.927 203.41 122.097 203.41 122.097C203.41 122.097 202.62 132.537 204.43 136.017C207.87 142.637 243.06 163.957 252.83 166.487C253.44 166.647 254.05 166.767 254.66 166.847C264.09 168.177 270.34 162.887 270.27 153.367L267.89 121.697Z" fill="#FEBBA0"/>
<path d="M198.55 119.117C198.2 121.357 197.89 123.517 197.65 125.227L158.26 143.467L159.92 121.707H137.57L135.2 153.397C135.14 162.917 141.39 168.197 150.81 166.877C151.42 166.787 152.03 166.667 152.64 166.517C162.41 163.987 195.14 146.297 202.13 135.977C204.2 132.927 203.22 122.657 203.22 122.657C203.22 122.657 203.22 121.237 203.18 119.217C201.64 119.187 200.1 119.157 198.55 119.117Z" fill="#FEBBA0"/>
<path d="M165.64 134.117C174.38 108.267 174.31 108.247 185.04 61.6368C177.86 62.1268 177.12 60.9568 171.46 63.8968C154.48 72.7168 138.49 101.687 133.78 134.117H165.64Z" fill="#FEE6C6"/>
<path d="M243.46 131.567C238.32 113.257 219.09 61.6368 219.09 61.6368C238.32 60.9868 264.56 86.0568 270.84 128.217L243.46 131.567Z" fill="#FEE6C6"/>
<path d="M238.97 91.1368L234.92 124.417" stroke="#EED2AD" stroke-width="1.5925" stroke-miterlimit="10" stroke-linecap="round"/>
<path d="M169.32 96.5968L172.54 132.197" stroke="#EED2AD" stroke-width="1.5925" stroke-miterlimit="10" stroke-linecap="round"/>
</svg>
