<svg width="415" height="896" viewBox="0 0 415 896" fill="none" xmlns="http://www.w3.org/2000/svg">
<g clip-path="url(#clip0_0_3)">
<rect width="414" height="896" transform="translate(0.5)" fill="#8E97FD"/>
<circle cx="207.5" cy="615" r="246" fill="#9AA2FD"/>
<circle cx="207.5" cy="615" r="246" fill="#949DFF"/>
<circle cx="209" cy="633" r="211" fill="#9AA2FD"/>
<circle cx="209" cy="633" r="211" fill="#99A1FF"/>
<circle cx="207.5" cy="615" r="177" fill="#9AA2FD"/>
<circle cx="207.5" cy="615" r="177" fill="#9EA6FF"/>
<path d="M296.9 424C295.329 415.773 286.645 411.573 282.5 410.502C292.449 407.931 297.118 415.858 298.209 420.143C309.205 413.973 316.318 418.001 318.5 420.786C310.122 418.215 300.609 421.857 296.9 424Z" fill="#B4BAFF"/>
<path d="M62.3 440C61.34 435.299 56.0333 432.899 53.5 432.287C59.58 430.818 62.4333 435.348 63.1 437.796C69.82 434.27 74.1667 436.572 75.5 438.164C70.38 436.694 64.5667 438.776 62.3 440Z" fill="#B4BAFF"/>
<circle cx="207.5" cy="615" r="142" fill="#A3ABFF"/>
<rect x="-1.5" y="654" width="416" height="266" fill="#8C96FF"/>
<path d="M345.748 461.025C297.749 447.525 304.748 488.025 314.748 488.025C318.857 488.025 327.373 489.025 337.749 489.025H369.249C409.248 489.025 420.749 486.358 421.249 485.525C424.749 459.025 403.582 461.525 392.249 464.525C394.082 454.692 392.149 434.825 369.748 434.025C347.348 433.225 344.415 451.692 345.748 461.025Z" fill="#B4BAFF"/>
<path d="M8.25573 385.787C-12.7717 379.899 -9.70541 397.564 -5.3247 397.564C-3.5249 397.564 0.205866 398 4.75144 398H18.5509C36.0738 398 41.1117 396.837 41.331 396.473C42.8643 384.915 33.5916 386.005 28.6267 387.314C29.4299 383.025 28.5828 374.36 18.7696 374.011C8.95638 373.662 7.67151 381.717 8.25573 385.787Z" fill="#A6ADFB"/>
<circle cx="39.5" cy="363" r="6" fill="#A6ADFB"/>
<circle cx="3" cy="3" r="3" transform="matrix(1 0 0 -1 27.5 352)" fill="#A6ADFB"/>
<path d="M63.5835 622.997L-12 655.997H418L344.498 622.997H63.5835Z" fill="#8C96FF"/>
<path d="M177.48 561.637L163.2 584.837L190.59 617.367H218.21L243.96 584.287L228.02 561.637H177.48Z" fill="#3F4553"/>
<path d="M163.2 584.837C163.2 584.837 101.77 589.587 86.3599 605.677C70.9499 621.767 78.1999 639.237 93.2099 639.237C120.84 639.237 179.3 640.927 206.96 639.237L208.61 601.567L163.2 584.837Z" fill="#3F4553"/>
<path d="M242.37 584.037C242.37 584.037 306.7 589.587 322.11 605.677C337.52 621.767 328.64 632.427 315.26 639.237C296.43 648.827 228.56 647.237 193.36 635.587L199.87 601.567L242.37 584.037Z" fill="#3F4553"/>
<path d="M245.2 615.637L240.85 604.397L246.27 601.987C246.27 601.987 245.52 595.337 252.15 594.057C258.78 592.777 266.68 597.057 274.38 593.607C281.48 590.427 290.17 587.497 298.28 591.897C299.48 592.547 300.04 593.977 299.63 595.277L299.6 595.377C299.19 596.687 297.91 597.497 296.54 597.357C293.68 597.067 288.58 597.127 283.54 600.177C274.85 605.457 245.2 615.637 245.2 615.637Z" fill="#FEBBA0"/>
<path d="M295.81 616.277C295.81 616.277 252.88 608.647 162.45 607.467L153.72 619.307C153.72 619.307 176.22 632.167 197.34 636.817C218.46 641.467 291.37 656.107 323.93 633.557L295.81 616.277Z" fill="#3F4553"/>
<path d="M197.34 636.827C175.69 631.827 153.04 619.007 153.04 619.007L154.39 616.717" stroke="#6E758F" stroke-width="1.5925" stroke-miterlimit="10" stroke-linecap="round"/>
<path d="M162.45 607.467C162.45 607.467 261.8 605.197 288.31 620.577" stroke="#6E758F" stroke-width="1.5925" stroke-miterlimit="10" stroke-linecap="round"/>
<path d="M113.68 613.907C113.68 613.907 131.82 605.407 144.22 610.977" stroke="#6E758F" stroke-width="1.5925" stroke-miterlimit="10" stroke-linecap="round"/>
<path d="M155.81 617.347L162.44 607.247L155.81 603.657C155.81 603.657 153.49 597.847 146.99 596.047C140.48 594.257 135.85 597.147 128.44 593.107C121.61 589.377 113.17 585.787 104.75 589.537C103.51 590.087 102.83 591.467 103.14 592.797L103.16 592.897C103.47 594.237 104.68 595.137 106.05 595.107C108.92 595.037 114.01 595.497 118.79 598.937C127.04 604.877 155.81 617.347 155.81 617.347Z" fill="#FEBBA0"/>
<path d="M212.89 607.827L240.05 605.157" stroke="#6E758F" stroke-width="1.5925" stroke-miterlimit="10" stroke-linecap="round"/>
<path d="M178.35 596.057L193.5 607.027" stroke="#6E758F" stroke-width="1.5925" stroke-miterlimit="10" stroke-linecap="round"/>
<path d="M174.44 446.767C175.08 453.027 180.53 457.587 186.61 456.967C192.69 456.347 197.1 450.767 196.46 444.517C195.82 438.257 190.37 433.697 184.29 434.317C178.22 434.927 173.81 440.507 174.44 446.767Z" fill="#3F4553"/>
<path d="M197.15 451.317C197.15 451.317 177.83 448.397 174.79 430.167C172.11 414.057 182.92 401.147 194.77 398.917C194.78 398.917 223.25 442.797 197.15 451.317Z" fill="#3F4553"/>
<path d="M197.59 400.647C196.17 401.347 194.82 402.267 193.59 403.457C182.58 414.047 189.55 434.607 199.41 443.887C204.87 449.017 212.85 451.407 219.82 448.787C230.01 444.957 233.2 433.417 231.13 423.137C229.59 415.477 225.34 408.247 219.07 403.747C212.8 399.257 204.33 397.357 197.59 400.647Z" fill="#FDBCA0"/>
<path d="M195.76 437.687C193.83 439.597 190.47 440.377 187.89 439.467C185.31 438.557 183.19 436.127 182.52 433.307C181.92 430.777 182.57 427.897 184.43 426.347C186.29 424.797 189.64 424.897 191.23 426.907L195.76 437.687Z" fill="#FDBCA0"/>
<path d="M192.94 430.967L194.97 467.307C195.24 474.027 200.69 479.367 207.41 479.497C215.17 479.657 221.26 472.877 220.27 465.177L216.17 431.437L192.94 430.967Z" fill="#FDBCA0"/>
<path d="M218.93 454.217L218.42 449.237C218.42 449.237 208.42 452.307 199.41 443.877C199.41 443.887 204.6 453.357 218.93 454.217Z" fill="#DF8370"/>
<path d="M188.97 425.477C201.99 424.807 213.87 416.067 220.43 404.807C220.43 404.807 208.45 393.437 190.94 400.087C176.43 405.587 188.97 425.477 188.97 425.477Z" fill="#3F4553"/>
<path d="M190.4 433.837C188.9 433.987 187.59 433.177 187.47 432.027C187.38 431.157 187.99 430.347 188.93 429.927" stroke="#444359" stroke-width="1.1144" stroke-miterlimit="10" stroke-linecap="round"/>
<path d="M221.68 430.997C221.98 430.087 222.5 429.367 223.08 428.687L223.36 429.567C222.7 429.317 222.34 428.937 221.97 428.567C221.62 428.177 221.31 427.787 221.03 427.367C220.47 426.537 220 425.657 219.66 424.727C220.36 425.437 221 426.167 221.67 426.867C222.01 427.207 222.33 427.557 222.68 427.857C223.01 428.147 223.4 428.447 223.67 428.517L224.48 428.707L223.95 429.397C223.41 430.107 222.81 430.767 221.98 431.247C221.88 431.307 221.76 431.267 221.7 431.177C221.67 431.107 221.67 431.047 221.68 430.997Z" fill="#444359"/>
<path d="M224.61 434.177C224.21 434.997 223.53 435.707 222.65 436.137C221.78 436.587 220.7 436.677 219.74 436.397C218.76 436.127 218 435.487 217.35 434.827C217.06 434.467 216.77 434.097 216.53 433.717C216.32 433.307 216.1 432.907 215.94 432.487C216.31 432.767 216.63 433.067 216.95 433.367L217.94 434.187C218.64 434.647 219.3 435.147 220.06 435.327C220.79 435.557 221.57 435.547 222.34 435.337C223.1 435.117 223.86 434.687 224.61 434.177Z" fill="#444359"/>
<path d="M214.14 421.107C214.53 422.267 214.75 423.467 214.67 424.757C214.62 425.387 214.47 426.077 214 426.687C213.52 427.307 212.71 427.577 212 427.557C211.27 427.547 210.55 427.227 210.06 426.777C209.55 426.327 209.15 425.807 208.85 425.257C208.25 424.147 207.87 422.987 207.68 421.767C207.65 421.577 207.78 421.397 207.97 421.357C208.15 421.327 208.31 421.437 208.36 421.597L208.37 421.617C208.71 422.697 209.16 423.787 209.74 424.727C210.32 425.637 211.11 426.477 212.04 426.447C212.5 426.467 212.93 426.347 213.19 426.017C213.48 425.697 213.62 425.177 213.7 424.647C213.85 423.577 213.75 422.397 213.57 421.267V421.247C213.54 421.087 213.66 420.927 213.82 420.907C213.95 420.887 214.09 420.977 214.14 421.107Z" fill="#444359"/>
<path d="M228.66 418.837C228.99 419.817 229.17 420.817 229.15 421.887C229.14 422.417 229.04 422.997 228.7 423.547C228.37 424.127 227.63 424.487 226.99 424.457C226.32 424.447 225.71 424.097 225.32 423.687C224.92 423.267 224.61 422.817 224.38 422.337C223.93 421.377 223.65 420.397 223.51 419.367C223.48 419.177 223.62 418.997 223.82 418.967C223.99 418.947 224.15 419.047 224.2 419.207L224.21 419.227C224.5 420.127 224.85 421.047 225.3 421.847C225.75 422.627 226.36 423.377 227.03 423.337C227.37 423.347 227.64 423.247 227.82 422.967C228.02 422.687 228.12 422.257 228.18 421.807C228.28 420.907 228.2 419.917 228.09 418.977V418.957C228.07 418.797 228.19 418.647 228.35 418.617C228.48 418.617 228.62 418.707 228.66 418.837Z" fill="#444359"/>
<path d="M239.46 470.607C239.37 464.507 219.59 459.627 219.59 459.627C218.35 460.997 216.22 463.307 207.25 463.307C198.67 463.307 195.24 461.087 193.9 459.627H185.41C183.52 459.627 181.79 460.707 181 462.427C163.99 499.637 173.55 541.197 177.47 561.627C177.83 563.507 213.33 562.237 229.34 563.507C232.8 563.797 239.8 492.777 239.46 470.607Z" fill="#FEE6C6"/>
<path d="M198.15 523.227C199.91 509.007 202.06 500.477 203.71 503.277C205.17 505.757 204.36 518.197 202.17 530.197C202.18 530.197 197.4 529.317 198.15 523.227Z" fill="#FEBBA0"/>
<path d="M209.77 523.227C208.01 509.007 205.86 500.477 204.21 503.277C202.75 505.757 203.56 518.197 205.75 530.197C205.74 530.197 210.52 529.317 209.77 523.227Z" fill="#FEBBA0"/>
<path d="M268.39 519.697H246.04L249.59 542.397L209.03 522.607C208.89 521.087 208.7 519.207 208.47 517.217C206.94 517.217 205.4 517.217 203.87 517.197C203.88 518.927 203.91 520.097 203.91 520.097C203.91 520.097 203.12 530.537 204.93 534.017C208.37 540.637 243.56 561.957 253.33 564.487C253.94 564.647 254.55 564.767 255.16 564.847C264.59 566.177 270.84 560.887 270.77 551.367L268.39 519.697Z" fill="#FEBBA0"/>
<path d="M199.05 517.117C198.7 519.357 198.39 521.517 198.15 523.227L158.76 541.467L160.42 519.707H138.07L135.7 551.397C135.64 560.917 141.89 566.197 151.31 564.877C151.92 564.787 152.53 564.667 153.14 564.517C162.91 561.987 195.64 544.297 202.63 533.977C204.7 530.927 203.72 520.657 203.72 520.657C203.72 520.657 203.72 519.237 203.68 517.217C202.14 517.187 200.6 517.157 199.05 517.117Z" fill="#FEBBA0"/>
<path d="M166.14 532.117C174.88 506.267 174.81 506.247 185.54 459.637C178.36 460.127 177.62 458.957 171.96 461.897C154.98 470.717 138.99 499.687 134.28 532.117H166.14Z" fill="#FEE6C6"/>
<path d="M243.96 529.567C238.82 511.257 219.59 459.637 219.59 459.637C238.82 458.987 265.06 484.057 271.34 526.217L243.96 529.567Z" fill="#FEE6C6"/>
<path d="M239.47 489.137L235.42 522.417" stroke="#EED2AD" stroke-width="1.5925" stroke-miterlimit="10" stroke-linecap="round"/>
<path d="M169.82 494.597L173.04 530.197" stroke="#EED2AD" stroke-width="1.5925" stroke-miterlimit="10" stroke-linecap="round"/>
</g>
<defs>
<clipPath id="clip0_0_3">
<rect width="414" height="896" fill="white" transform="translate(0.5)"/>
</clipPath>
</defs>
</svg>
